<mxfile host="app.diagrams.net" modified="2023-06-30T11:16:19.081Z" agent="Mozilla/5.0 (X11; Linux x86_64; rv:102.0) Gecko/20100101 Firefox/102.0" etag="meN3SDpQOSlfT84h-p48" version="21.5.2" type="github">
  <diagram name="PÃ¡gina-1" id="IL-7BzSWXNtbXbfNUR7T">
    <mxGraphModel dx="2390" dy="1107" grid="0" gridSize="10" guides="1" tooltips="1" connect="1" arrows="1" fold="1" page="1" pageScale="1" pageWidth="827" pageHeight="1169" math="0" shadow="0">
      <root>
        <mxCell id="0" />
        <mxCell id="1" parent="0" />
        <mxCell id="h0L3zIeI5D8LHyn1ZvPP-310" value="" style="rounded=0;whiteSpace=wrap;html=1;fontStyle=0;labelBackgroundColor=none;fillColor=none;strokeColor=#FFFFFF;fontColor=#FFFFFF;" vertex="1" parent="1">
          <mxGeometry x="90" y="3066" width="525" height="363" as="geometry" />
        </mxCell>
        <mxCell id="h0L3zIeI5D8LHyn1ZvPP-289" value="" style="rounded=0;whiteSpace=wrap;html=1;labelBackgroundColor=none;fillColor=none;strokeColor=#FFFFFF;fontColor=#FFFFFF;" vertex="1" parent="1">
          <mxGeometry x="839" y="3103" width="701" height="333" as="geometry" />
        </mxCell>
        <mxCell id="h0L3zIeI5D8LHyn1ZvPP-287" value="" style="rounded=0;whiteSpace=wrap;html=1;labelBackgroundColor=none;fillColor=none;strokeColor=#FFFFFF;fontColor=#FFFFFF;" vertex="1" parent="1">
          <mxGeometry x="1535" y="2378" width="612" height="575" as="geometry" />
        </mxCell>
        <mxCell id="h0L3zIeI5D8LHyn1ZvPP-1" value="BioconductorScraper" style="swimlane;fontStyle=1;align=center;verticalAlign=top;childLayout=stackLayout;horizontal=1;startSize=29.75;horizontalStack=0;resizeParent=1;resizeParentMax=0;resizeLast=0;collapsible=0;marginBottom=0;labelBackgroundColor=none;rounded=1;fillColor=#182E3E;strokeColor=#FFFFFF;fontColor=#FFFFFF;" vertex="1" parent="1">
          <mxGeometry x="237" y="457" width="353" height="127.75" as="geometry" />
        </mxCell>
        <mxCell id="h0L3zIeI5D8LHyn1ZvPP-2" value="BIOCONDUCTOR_LIST_URL : str" style="text;align=left;verticalAlign=top;spacingLeft=4;spacingRight=4;overflow=hidden;rotatable=0;points=[[0,0.5],[1,0.5]];portConstraint=eastwest;labelBackgroundColor=none;rounded=1;fontColor=#FFFFFF;" vertex="1" parent="h0L3zIeI5D8LHyn1ZvPP-1">
          <mxGeometry y="29.75" width="353" height="30" as="geometry" />
        </mxCell>
        <mxCell id="h0L3zIeI5D8LHyn1ZvPP-3" value="BIOCONDUCTOR_PACKAGE_DATA_URL : str" style="text;align=left;verticalAlign=top;spacingLeft=4;spacingRight=4;overflow=hidden;rotatable=0;points=[[0,0.5],[1,0.5]];portConstraint=eastwest;labelBackgroundColor=none;rounded=1;fontColor=#FFFFFF;" vertex="1" parent="h0L3zIeI5D8LHyn1ZvPP-1">
          <mxGeometry y="59.75" width="353" height="30" as="geometry" />
        </mxCell>
        <mxCell id="h0L3zIeI5D8LHyn1ZvPP-4" style="line;strokeWidth=1;align=left;verticalAlign=middle;spacingTop=-1;spacingLeft=3;spacingRight=3;rotatable=0;labelPosition=right;points=[];portConstraint=eastwest;labelBackgroundColor=none;rounded=1;fillColor=#182E3E;strokeColor=#FFFFFF;fontColor=#FFFFFF;" vertex="1" parent="h0L3zIeI5D8LHyn1ZvPP-1">
          <mxGeometry y="89.75" width="353" height="8" as="geometry" />
        </mxCell>
        <mxCell id="h0L3zIeI5D8LHyn1ZvPP-5" value="obtain_package_names() List[str]" style="text;align=left;verticalAlign=top;spacingLeft=4;spacingRight=4;overflow=hidden;rotatable=0;points=[[0,0.5],[1,0.5]];portConstraint=eastwest;labelBackgroundColor=none;rounded=1;fontColor=#FFFFFF;" vertex="1" parent="h0L3zIeI5D8LHyn1ZvPP-1">
          <mxGeometry y="97.75" width="353" height="30" as="geometry" />
        </mxCell>
        <mxCell id="h0L3zIeI5D8LHyn1ZvPP-6" value="CSVDataSource" style="swimlane;fontStyle=1;align=center;verticalAlign=top;childLayout=stackLayout;horizontal=1;startSize=25.454545454545453;horizontalStack=0;resizeParent=1;resizeParentMax=0;resizeLast=0;collapsible=0;marginBottom=0;labelBackgroundColor=none;rounded=1;fillColor=#182E3E;strokeColor=#FFFFFF;fontColor=#FFFFFF;" vertex="1" parent="1">
          <mxGeometry x="270" y="830" width="797" height="283.45454545454544" as="geometry" />
        </mxCell>
        <mxCell id="h0L3zIeI5D8LHyn1ZvPP-7" value="data : NoneType, Optional[pd.DataFrame], TextFileReader" style="text;align=left;verticalAlign=top;spacingLeft=4;spacingRight=4;overflow=hidden;rotatable=0;points=[[0,0.5],[1,0.5]];portConstraint=eastwest;labelBackgroundColor=none;rounded=1;fontColor=#FFFFFF;" vertex="1" parent="h0L3zIeI5D8LHyn1ZvPP-6">
          <mxGeometry y="25.454545454545453" width="797" height="25" as="geometry" />
        </mxCell>
        <mxCell id="h0L3zIeI5D8LHyn1ZvPP-8" value="dependency_field : Optional[str]" style="text;align=left;verticalAlign=top;spacingLeft=4;spacingRight=4;overflow=hidden;rotatable=0;points=[[0,0.5],[1,0.5]];portConstraint=eastwest;labelBackgroundColor=none;rounded=1;fontColor=#FFFFFF;" vertex="1" parent="h0L3zIeI5D8LHyn1ZvPP-6">
          <mxGeometry y="50.45454545454545" width="797" height="25" as="geometry" />
        </mxCell>
        <mxCell id="h0L3zIeI5D8LHyn1ZvPP-9" value="dependency_version_field : Optional[str]" style="text;align=left;verticalAlign=top;spacingLeft=4;spacingRight=4;overflow=hidden;rotatable=0;points=[[0,0.5],[1,0.5]];portConstraint=eastwest;labelBackgroundColor=none;rounded=1;fontColor=#FFFFFF;" vertex="1" parent="h0L3zIeI5D8LHyn1ZvPP-6">
          <mxGeometry y="75.45454545454545" width="797" height="25" as="geometry" />
        </mxCell>
        <mxCell id="h0L3zIeI5D8LHyn1ZvPP-10" value="dependent_field : Optional[str]" style="text;align=left;verticalAlign=top;spacingLeft=4;spacingRight=4;overflow=hidden;rotatable=0;points=[[0,0.5],[1,0.5]];portConstraint=eastwest;labelBackgroundColor=none;rounded=1;fontColor=#FFFFFF;" vertex="1" parent="h0L3zIeI5D8LHyn1ZvPP-6">
          <mxGeometry y="100.45454545454545" width="797" height="25" as="geometry" />
        </mxCell>
        <mxCell id="h0L3zIeI5D8LHyn1ZvPP-11" value="dependent_url_field : Optional[str]" style="text;align=left;verticalAlign=top;spacingLeft=4;spacingRight=4;overflow=hidden;rotatable=0;points=[[0,0.5],[1,0.5]];portConstraint=eastwest;labelBackgroundColor=none;rounded=1;fontColor=#FFFFFF;" vertex="1" parent="h0L3zIeI5D8LHyn1ZvPP-6">
          <mxGeometry y="125.45454545454545" width="797" height="25" as="geometry" />
        </mxCell>
        <mxCell id="h0L3zIeI5D8LHyn1ZvPP-12" value="dependent_version_field : Optional[str]" style="text;align=left;verticalAlign=top;spacingLeft=4;spacingRight=4;overflow=hidden;rotatable=0;points=[[0,0.5],[1,0.5]];portConstraint=eastwest;labelBackgroundColor=none;rounded=1;fontColor=#FFFFFF;" vertex="1" parent="h0L3zIeI5D8LHyn1ZvPP-6">
          <mxGeometry y="150.45454545454544" width="797" height="25" as="geometry" />
        </mxCell>
        <mxCell id="h0L3zIeI5D8LHyn1ZvPP-13" value="file_path : str" style="text;align=left;verticalAlign=top;spacingLeft=4;spacingRight=4;overflow=hidden;rotatable=0;points=[[0,0.5],[1,0.5]];portConstraint=eastwest;labelBackgroundColor=none;rounded=1;fontColor=#FFFFFF;" vertex="1" parent="h0L3zIeI5D8LHyn1ZvPP-6">
          <mxGeometry y="175.45454545454544" width="797" height="25" as="geometry" />
        </mxCell>
        <mxCell id="h0L3zIeI5D8LHyn1ZvPP-14" style="line;strokeWidth=1;align=left;verticalAlign=middle;spacingTop=-1;spacingLeft=3;spacingRight=3;rotatable=0;labelPosition=right;points=[];portConstraint=eastwest;labelBackgroundColor=none;rounded=1;fillColor=#182E3E;strokeColor=#FFFFFF;fontColor=#FFFFFF;" vertex="1" parent="h0L3zIeI5D8LHyn1ZvPP-6">
          <mxGeometry y="200.45454545454544" width="797" height="8" as="geometry" />
        </mxCell>
        <mxCell id="h0L3zIeI5D8LHyn1ZvPP-15" value="obtain_package_data(package_name: str, override_previous: bool) dict" style="text;align=left;verticalAlign=top;spacingLeft=4;spacingRight=4;overflow=hidden;rotatable=0;points=[[0,0.5],[1,0.5]];portConstraint=eastwest;labelBackgroundColor=none;rounded=1;fontColor=#FFFFFF;" vertex="1" parent="h0L3zIeI5D8LHyn1ZvPP-6">
          <mxGeometry y="208.45454545454544" width="797" height="25" as="geometry" />
        </mxCell>
        <mxCell id="h0L3zIeI5D8LHyn1ZvPP-16" value="obtain_package_names() List[str]" style="text;align=left;verticalAlign=top;spacingLeft=4;spacingRight=4;overflow=hidden;rotatable=0;points=[[0,0.5],[1,0.5]];portConstraint=eastwest;labelBackgroundColor=none;rounded=1;fontColor=#FFFFFF;" vertex="1" parent="h0L3zIeI5D8LHyn1ZvPP-6">
          <mxGeometry y="233.45454545454544" width="797" height="25" as="geometry" />
        </mxCell>
        <mxCell id="h0L3zIeI5D8LHyn1ZvPP-17" value="obtain_packages_data(package_names: List[str], progress_bar: Optional[tqdm.tqdm]) tuple[List[dict], List[str]]" style="text;align=left;verticalAlign=top;spacingLeft=4;spacingRight=4;overflow=hidden;rotatable=0;points=[[0,0.5],[1,0.5]];portConstraint=eastwest;labelBackgroundColor=none;rounded=1;fontColor=#FFFFFF;" vertex="1" parent="h0L3zIeI5D8LHyn1ZvPP-6">
          <mxGeometry y="258.45454545454544" width="797" height="25" as="geometry" />
        </mxCell>
        <mxCell id="h0L3zIeI5D8LHyn1ZvPP-18" value="CranScraper" style="swimlane;fontStyle=1;align=center;verticalAlign=top;childLayout=stackLayout;horizontal=1;startSize=29.75;horizontalStack=0;resizeParent=1;resizeParentMax=0;resizeLast=0;collapsible=0;marginBottom=0;labelBackgroundColor=none;rounded=1;fillColor=#182E3E;strokeColor=#FFFFFF;fontColor=#FFFFFF;" vertex="1" parent="1">
          <mxGeometry x="642" y="160" width="267" height="127.75" as="geometry" />
        </mxCell>
        <mxCell id="h0L3zIeI5D8LHyn1ZvPP-19" value="CRAN_PACKAGE_DATA_URL : str" style="text;align=left;verticalAlign=top;spacingLeft=4;spacingRight=4;overflow=hidden;rotatable=0;points=[[0,0.5],[1,0.5]];portConstraint=eastwest;labelBackgroundColor=none;rounded=1;fontColor=#FFFFFF;" vertex="1" parent="h0L3zIeI5D8LHyn1ZvPP-18">
          <mxGeometry y="29.75" width="267" height="30" as="geometry" />
        </mxCell>
        <mxCell id="h0L3zIeI5D8LHyn1ZvPP-20" value="CRAN_PACKAGE_LIST_URL : str" style="text;align=left;verticalAlign=top;spacingLeft=4;spacingRight=4;overflow=hidden;rotatable=0;points=[[0,0.5],[1,0.5]];portConstraint=eastwest;labelBackgroundColor=none;rounded=1;fontColor=#FFFFFF;" vertex="1" parent="h0L3zIeI5D8LHyn1ZvPP-18">
          <mxGeometry y="59.75" width="267" height="30" as="geometry" />
        </mxCell>
        <mxCell id="h0L3zIeI5D8LHyn1ZvPP-21" style="line;strokeWidth=1;align=left;verticalAlign=middle;spacingTop=-1;spacingLeft=3;spacingRight=3;rotatable=0;labelPosition=right;points=[];portConstraint=eastwest;labelBackgroundColor=none;rounded=1;fillColor=#182E3E;strokeColor=#FFFFFF;fontColor=#FFFFFF;" vertex="1" parent="h0L3zIeI5D8LHyn1ZvPP-18">
          <mxGeometry y="89.75" width="267" height="8" as="geometry" />
        </mxCell>
        <mxCell id="h0L3zIeI5D8LHyn1ZvPP-22" value="obtain_package_names() List[str]" style="text;align=left;verticalAlign=top;spacingLeft=4;spacingRight=4;overflow=hidden;rotatable=0;points=[[0,0.5],[1,0.5]];portConstraint=eastwest;labelBackgroundColor=none;rounded=1;fontColor=#FFFFFF;" vertex="1" parent="h0L3zIeI5D8LHyn1ZvPP-18">
          <mxGeometry y="97.75" width="267" height="30" as="geometry" />
        </mxCell>
        <mxCell id="h0L3zIeI5D8LHyn1ZvPP-23" value="DataSource" style="swimlane;fontStyle=1;align=center;verticalAlign=top;childLayout=stackLayout;horizontal=1;startSize=28.4;horizontalStack=0;resizeParent=1;resizeParentMax=0;resizeLast=0;collapsible=0;marginBottom=0;labelBackgroundColor=none;rounded=1;fillColor=#182E3E;strokeColor=#FFFFFF;fontColor=#FFFFFF;" vertex="1" parent="1">
          <mxGeometry x="860" y="640" width="437" height="148.4" as="geometry" />
        </mxCell>
        <mxCell id="h0L3zIeI5D8LHyn1ZvPP-24" value="logger : NoneType, Logger, RootLogger" style="text;align=left;verticalAlign=top;spacingLeft=4;spacingRight=4;overflow=hidden;rotatable=0;points=[[0,0.5],[1,0.5]];portConstraint=eastwest;labelBackgroundColor=none;rounded=1;fontColor=#FFFFFF;" vertex="1" parent="h0L3zIeI5D8LHyn1ZvPP-23">
          <mxGeometry y="28.4" width="437" height="28" as="geometry" />
        </mxCell>
        <mxCell id="h0L3zIeI5D8LHyn1ZvPP-25" style="line;strokeWidth=1;align=left;verticalAlign=middle;spacingTop=-1;spacingLeft=3;spacingRight=3;rotatable=0;labelPosition=right;points=[];portConstraint=eastwest;labelBackgroundColor=none;rounded=1;fillColor=#182E3E;strokeColor=#FFFFFF;fontColor=#FFFFFF;" vertex="1" parent="h0L3zIeI5D8LHyn1ZvPP-23">
          <mxGeometry y="56.4" width="437" height="8" as="geometry" />
        </mxCell>
        <mxCell id="h0L3zIeI5D8LHyn1ZvPP-26" value="obtain_package_data(package_name: str)* dict" style="text;align=left;verticalAlign=top;spacingLeft=4;spacingRight=4;overflow=hidden;rotatable=0;points=[[0,0.5],[1,0.5]];portConstraint=eastwest;labelBackgroundColor=none;rounded=1;fontColor=#FFFFFF;" vertex="1" parent="h0L3zIeI5D8LHyn1ZvPP-23">
          <mxGeometry y="64.4" width="437" height="28" as="geometry" />
        </mxCell>
        <mxCell id="h0L3zIeI5D8LHyn1ZvPP-27" value="obtain_package_names()* List[str]" style="text;align=left;verticalAlign=top;spacingLeft=4;spacingRight=4;overflow=hidden;rotatable=0;points=[[0,0.5],[1,0.5]];portConstraint=eastwest;labelBackgroundColor=none;rounded=1;fontColor=#FFFFFF;" vertex="1" parent="h0L3zIeI5D8LHyn1ZvPP-23">
          <mxGeometry y="92.4" width="437" height="28" as="geometry" />
        </mxCell>
        <mxCell id="h0L3zIeI5D8LHyn1ZvPP-28" value="obtain_packages_data(package_names: List[str])* List[dict]" style="text;align=left;verticalAlign=top;spacingLeft=4;spacingRight=4;overflow=hidden;rotatable=0;points=[[0,0.5],[1,0.5]];portConstraint=eastwest;labelBackgroundColor=none;rounded=1;fontColor=#FFFFFF;" vertex="1" parent="h0L3zIeI5D8LHyn1ZvPP-23">
          <mxGeometry y="120.4" width="437" height="28" as="geometry" />
        </mxCell>
        <mxCell id="h0L3zIeI5D8LHyn1ZvPP-29" value="GithubScraper" style="swimlane;fontStyle=1;align=center;verticalAlign=top;childLayout=stackLayout;horizontal=1;startSize=27.428571428571427;horizontalStack=0;resizeParent=1;resizeParentMax=0;resizeLast=0;collapsible=0;marginBottom=0;labelBackgroundColor=none;rounded=1;fillColor=#182E3E;strokeColor=#FFFFFF;fontColor=#FFFFFF;" vertex="1" parent="1">
          <mxGeometry x="740" y="26.57" width="451" height="89.42857142857143" as="geometry" />
        </mxCell>
        <mxCell id="h0L3zIeI5D8LHyn1ZvPP-30" style="line;strokeWidth=1;align=left;verticalAlign=middle;spacingTop=-1;spacingLeft=3;spacingRight=3;rotatable=0;labelPosition=right;points=[];portConstraint=eastwest;labelBackgroundColor=none;rounded=1;fillColor=#182E3E;strokeColor=#FFFFFF;fontColor=#FFFFFF;" vertex="1" parent="h0L3zIeI5D8LHyn1ZvPP-29">
          <mxGeometry y="27.428571428571427" width="451" height="8" as="geometry" />
        </mxCell>
        <mxCell id="h0L3zIeI5D8LHyn1ZvPP-31" value="obtain_package_data(package_name: str) Union[dict, None]" style="text;align=left;verticalAlign=top;spacingLeft=4;spacingRight=4;overflow=hidden;rotatable=0;points=[[0,0.5],[1,0.5]];portConstraint=eastwest;labelBackgroundColor=none;rounded=1;fontColor=#FFFFFF;" vertex="1" parent="h0L3zIeI5D8LHyn1ZvPP-29">
          <mxGeometry y="35.42857142857143" width="451" height="27" as="geometry" />
        </mxCell>
        <mxCell id="h0L3zIeI5D8LHyn1ZvPP-32" value="obtain_package_names()* List[str]" style="text;align=left;verticalAlign=top;spacingLeft=4;spacingRight=4;overflow=hidden;rotatable=0;points=[[0,0.5],[1,0.5]];portConstraint=eastwest;labelBackgroundColor=none;rounded=1;fontColor=#FFFFFF;" vertex="1" parent="h0L3zIeI5D8LHyn1ZvPP-29">
          <mxGeometry y="62.42857142857143" width="451" height="27" as="geometry" />
        </mxCell>
        <mxCell id="h0L3zIeI5D8LHyn1ZvPP-33" value="LibrariesioDataSource" style="swimlane;fontStyle=1;align=center;verticalAlign=top;childLayout=stackLayout;horizontal=1;startSize=26.857142857142858;horizontalStack=0;resizeParent=1;resizeParentMax=0;resizeLast=0;collapsible=0;marginBottom=0;labelBackgroundColor=none;rounded=1;fillColor=#182E3E;strokeColor=#FFFFFF;fontColor=#FFFFFF;" vertex="1" parent="1">
          <mxGeometry x="1150" y="850" width="451" height="196.85714285714286" as="geometry" />
        </mxCell>
        <mxCell id="h0L3zIeI5D8LHyn1ZvPP-34" value="DEFAULT_DESCRIPTION : str" style="text;align=left;verticalAlign=top;spacingLeft=4;spacingRight=4;overflow=hidden;rotatable=0;points=[[0,0.5],[1,0.5]];portConstraint=eastwest;labelBackgroundColor=none;rounded=1;fontColor=#FFFFFF;" vertex="1" parent="h0L3zIeI5D8LHyn1ZvPP-33">
          <mxGeometry y="26.857142857142858" width="451" height="27" as="geometry" />
        </mxCell>
        <mxCell id="h0L3zIeI5D8LHyn1ZvPP-35" value="platform : str" style="text;align=left;verticalAlign=top;spacingLeft=4;spacingRight=4;overflow=hidden;rotatable=0;points=[[0,0.5],[1,0.5]];portConstraint=eastwest;labelBackgroundColor=none;rounded=1;fontColor=#FFFFFF;" vertex="1" parent="h0L3zIeI5D8LHyn1ZvPP-33">
          <mxGeometry y="53.85714285714286" width="451" height="27" as="geometry" />
        </mxCell>
        <mxCell id="h0L3zIeI5D8LHyn1ZvPP-36" value="search : Search" style="text;align=left;verticalAlign=top;spacingLeft=4;spacingRight=4;overflow=hidden;rotatable=0;points=[[0,0.5],[1,0.5]];portConstraint=eastwest;labelBackgroundColor=none;rounded=1;fontColor=#FFFFFF;" vertex="1" parent="h0L3zIeI5D8LHyn1ZvPP-33">
          <mxGeometry y="80.85714285714286" width="451" height="27" as="geometry" />
        </mxCell>
        <mxCell id="h0L3zIeI5D8LHyn1ZvPP-37" style="line;strokeWidth=1;align=left;verticalAlign=middle;spacingTop=-1;spacingLeft=3;spacingRight=3;rotatable=0;labelPosition=right;points=[];portConstraint=eastwest;labelBackgroundColor=none;rounded=1;fillColor=#182E3E;strokeColor=#FFFFFF;fontColor=#FFFFFF;" vertex="1" parent="h0L3zIeI5D8LHyn1ZvPP-33">
          <mxGeometry y="107.85714285714286" width="451" height="8" as="geometry" />
        </mxCell>
        <mxCell id="h0L3zIeI5D8LHyn1ZvPP-38" value="obtain_package_data(package_name: str) Union[dict, None]" style="text;align=left;verticalAlign=top;spacingLeft=4;spacingRight=4;overflow=hidden;rotatable=0;points=[[0,0.5],[1,0.5]];portConstraint=eastwest;labelBackgroundColor=none;rounded=1;fontColor=#FFFFFF;" vertex="1" parent="h0L3zIeI5D8LHyn1ZvPP-33">
          <mxGeometry y="115.85714285714286" width="451" height="27" as="geometry" />
        </mxCell>
        <mxCell id="h0L3zIeI5D8LHyn1ZvPP-39" value="obtain_package_names()* List[str]" style="text;align=left;verticalAlign=top;spacingLeft=4;spacingRight=4;overflow=hidden;rotatable=0;points=[[0,0.5],[1,0.5]];portConstraint=eastwest;labelBackgroundColor=none;rounded=1;fontColor=#FFFFFF;" vertex="1" parent="h0L3zIeI5D8LHyn1ZvPP-33">
          <mxGeometry y="142.85714285714286" width="451" height="27" as="geometry" />
        </mxCell>
        <mxCell id="h0L3zIeI5D8LHyn1ZvPP-40" value="obtain_packages_data(package_names: List[str]) List[dict]" style="text;align=left;verticalAlign=top;spacingLeft=4;spacingRight=4;overflow=hidden;rotatable=0;points=[[0,0.5],[1,0.5]];portConstraint=eastwest;labelBackgroundColor=none;rounded=1;fontColor=#FFFFFF;" vertex="1" parent="h0L3zIeI5D8LHyn1ZvPP-33">
          <mxGeometry y="169.85714285714286" width="451" height="27" as="geometry" />
        </mxCell>
        <mxCell id="h0L3zIeI5D8LHyn1ZvPP-41" value="NpmScraper" style="swimlane;fontStyle=1;align=center;verticalAlign=top;childLayout=stackLayout;horizontal=1;startSize=27.5;horizontalStack=0;resizeParent=1;resizeParentMax=0;resizeLast=0;collapsible=0;marginBottom=0;labelBackgroundColor=none;rounded=1;fillColor=#182E3E;strokeColor=#FFFFFF;fontColor=#FFFFFF;" vertex="1" parent="1">
          <mxGeometry x="1000" y="140" width="696" height="175.5" as="geometry" />
        </mxCell>
        <mxCell id="h0L3zIeI5D8LHyn1ZvPP-42" value="NPM_PACKAGE_LIST_URL : str" style="text;align=left;verticalAlign=top;spacingLeft=4;spacingRight=4;overflow=hidden;rotatable=0;points=[[0,0.5],[1,0.5]];portConstraint=eastwest;labelBackgroundColor=none;rounded=1;fontColor=#FFFFFF;" vertex="1" parent="h0L3zIeI5D8LHyn1ZvPP-41">
          <mxGeometry y="27.5" width="696" height="28" as="geometry" />
        </mxCell>
        <mxCell id="h0L3zIeI5D8LHyn1ZvPP-43" value="NPM_PACKAGE_REGISTRY_URL : str" style="text;align=left;verticalAlign=top;spacingLeft=4;spacingRight=4;overflow=hidden;rotatable=0;points=[[0,0.5],[1,0.5]];portConstraint=eastwest;labelBackgroundColor=none;rounded=1;fontColor=#FFFFFF;" vertex="1" parent="h0L3zIeI5D8LHyn1ZvPP-41">
          <mxGeometry y="55.5" width="696" height="28" as="geometry" />
        </mxCell>
        <mxCell id="h0L3zIeI5D8LHyn1ZvPP-44" value="NPM_REPO_URL : str" style="text;align=left;verticalAlign=top;spacingLeft=4;spacingRight=4;overflow=hidden;rotatable=0;points=[[0,0.5],[1,0.5]];portConstraint=eastwest;labelBackgroundColor=none;rounded=1;fontColor=#FFFFFF;" vertex="1" parent="h0L3zIeI5D8LHyn1ZvPP-41">
          <mxGeometry y="83.5" width="696" height="28" as="geometry" />
        </mxCell>
        <mxCell id="h0L3zIeI5D8LHyn1ZvPP-45" value="chunks_folder : NoneType" style="text;align=left;verticalAlign=top;spacingLeft=4;spacingRight=4;overflow=hidden;rotatable=0;points=[[0,0.5],[1,0.5]];portConstraint=eastwest;labelBackgroundColor=none;rounded=1;fontColor=#FFFFFF;" vertex="1" parent="h0L3zIeI5D8LHyn1ZvPP-41">
          <mxGeometry y="111.5" width="696" height="28" as="geometry" />
        </mxCell>
        <mxCell id="h0L3zIeI5D8LHyn1ZvPP-46" style="line;strokeWidth=1;align=left;verticalAlign=middle;spacingTop=-1;spacingLeft=3;spacingRight=3;rotatable=0;labelPosition=right;points=[];portConstraint=eastwest;labelBackgroundColor=none;rounded=1;fillColor=#182E3E;strokeColor=#FFFFFF;fontColor=#FFFFFF;" vertex="1" parent="h0L3zIeI5D8LHyn1ZvPP-41">
          <mxGeometry y="139.5" width="696" height="8" as="geometry" />
        </mxCell>
        <mxCell id="h0L3zIeI5D8LHyn1ZvPP-47" value="obtain_package_names(page_size: int, show_progress_bar: bool, save_chunks: bool) List[dict]" style="text;align=left;verticalAlign=top;spacingLeft=4;spacingRight=4;overflow=hidden;rotatable=0;points=[[0,0.5],[1,0.5]];portConstraint=eastwest;labelBackgroundColor=none;rounded=1;fontColor=#FFFFFF;" vertex="1" parent="h0L3zIeI5D8LHyn1ZvPP-41">
          <mxGeometry y="147.5" width="696" height="28" as="geometry" />
        </mxCell>
        <mxCell id="h0L3zIeI5D8LHyn1ZvPP-48" value="PypiScraper" style="swimlane;fontStyle=1;align=center;verticalAlign=top;childLayout=stackLayout;horizontal=1;startSize=29.75;horizontalStack=0;resizeParent=1;resizeParentMax=0;resizeLast=0;collapsible=0;marginBottom=0;labelBackgroundColor=none;rounded=1;fillColor=#182E3E;strokeColor=#FFFFFF;fontColor=#FFFFFF;" vertex="1" parent="1">
          <mxGeometry x="1398" y="640" width="261" height="127.75" as="geometry" />
        </mxCell>
        <mxCell id="h0L3zIeI5D8LHyn1ZvPP-49" value="PYPI_PACKAGE_DATA_URL : str" style="text;align=left;verticalAlign=top;spacingLeft=4;spacingRight=4;overflow=hidden;rotatable=0;points=[[0,0.5],[1,0.5]];portConstraint=eastwest;labelBackgroundColor=none;rounded=1;fontColor=#FFFFFF;" vertex="1" parent="h0L3zIeI5D8LHyn1ZvPP-48">
          <mxGeometry y="29.75" width="261" height="30" as="geometry" />
        </mxCell>
        <mxCell id="h0L3zIeI5D8LHyn1ZvPP-50" value="PYPI_PACKAGE_LIST_URL : str" style="text;align=left;verticalAlign=top;spacingLeft=4;spacingRight=4;overflow=hidden;rotatable=0;points=[[0,0.5],[1,0.5]];portConstraint=eastwest;labelBackgroundColor=none;rounded=1;fontColor=#FFFFFF;" vertex="1" parent="h0L3zIeI5D8LHyn1ZvPP-48">
          <mxGeometry y="59.75" width="261" height="30" as="geometry" />
        </mxCell>
        <mxCell id="h0L3zIeI5D8LHyn1ZvPP-51" style="line;strokeWidth=1;align=left;verticalAlign=middle;spacingTop=-1;spacingLeft=3;spacingRight=3;rotatable=0;labelPosition=right;points=[];portConstraint=eastwest;labelBackgroundColor=none;rounded=1;fillColor=#182E3E;strokeColor=#FFFFFF;fontColor=#FFFFFF;" vertex="1" parent="h0L3zIeI5D8LHyn1ZvPP-48">
          <mxGeometry y="89.75" width="261" height="8" as="geometry" />
        </mxCell>
        <mxCell id="h0L3zIeI5D8LHyn1ZvPP-52" value="obtain_package_names() List[str]" style="text;align=left;verticalAlign=top;spacingLeft=4;spacingRight=4;overflow=hidden;rotatable=0;points=[[0,0.5],[1,0.5]];portConstraint=eastwest;labelBackgroundColor=none;rounded=1;fontColor=#FFFFFF;" vertex="1" parent="h0L3zIeI5D8LHyn1ZvPP-48">
          <mxGeometry y="97.75" width="261" height="30" as="geometry" />
        </mxCell>
        <mxCell id="h0L3zIeI5D8LHyn1ZvPP-53" value="ScraperDataSource" style="swimlane;fontStyle=1;align=center;verticalAlign=top;childLayout=stackLayout;horizontal=1;startSize=27.5;horizontalStack=0;resizeParent=1;resizeParentMax=0;resizeLast=0;collapsible=0;marginBottom=0;labelBackgroundColor=none;rounded=1;fillColor=#182E3E;strokeColor=#FFFFFF;fontColor=#FFFFFF;" vertex="1" parent="1">
          <mxGeometry x="642" y="420" width="873" height="175.5" as="geometry" />
        </mxCell>
        <mxCell id="h0L3zIeI5D8LHyn1ZvPP-54" value="not_found : list" style="text;align=left;verticalAlign=top;spacingLeft=4;spacingRight=4;overflow=hidden;rotatable=0;points=[[0,0.5],[1,0.5]];portConstraint=eastwest;labelBackgroundColor=none;rounded=1;fontColor=#FFFFFF;" vertex="1" parent="h0L3zIeI5D8LHyn1ZvPP-53">
          <mxGeometry y="27.5" width="873" height="28" as="geometry" />
        </mxCell>
        <mxCell id="h0L3zIeI5D8LHyn1ZvPP-55" value="request_handler : NoneType, RequestHandler" style="text;align=left;verticalAlign=top;spacingLeft=4;spacingRight=4;overflow=hidden;rotatable=0;points=[[0,0.5],[1,0.5]];portConstraint=eastwest;labelBackgroundColor=none;rounded=1;fontColor=#FFFFFF;" vertex="1" parent="h0L3zIeI5D8LHyn1ZvPP-53">
          <mxGeometry y="55.5" width="873" height="28" as="geometry" />
        </mxCell>
        <mxCell id="h0L3zIeI5D8LHyn1ZvPP-56" style="line;strokeWidth=1;align=left;verticalAlign=middle;spacingTop=-1;spacingLeft=3;spacingRight=3;rotatable=0;labelPosition=right;points=[];portConstraint=eastwest;labelBackgroundColor=none;rounded=1;fillColor=#182E3E;strokeColor=#FFFFFF;fontColor=#FFFFFF;" vertex="1" parent="h0L3zIeI5D8LHyn1ZvPP-53">
          <mxGeometry y="83.5" width="873" height="8" as="geometry" />
        </mxCell>
        <mxCell id="h0L3zIeI5D8LHyn1ZvPP-57" value="obtain_package_data(package_name: str) Union[dict, None]" style="text;align=left;verticalAlign=top;spacingLeft=4;spacingRight=4;overflow=hidden;rotatable=0;points=[[0,0.5],[1,0.5]];portConstraint=eastwest;labelBackgroundColor=none;rounded=1;fontColor=#FFFFFF;" vertex="1" parent="h0L3zIeI5D8LHyn1ZvPP-53">
          <mxGeometry y="91.5" width="873" height="28" as="geometry" />
        </mxCell>
        <mxCell id="h0L3zIeI5D8LHyn1ZvPP-58" value="obtain_package_names()* List[str]" style="text;align=left;verticalAlign=top;spacingLeft=4;spacingRight=4;overflow=hidden;rotatable=0;points=[[0,0.5],[1,0.5]];portConstraint=eastwest;labelBackgroundColor=none;rounded=1;fontColor=#FFFFFF;" vertex="1" parent="h0L3zIeI5D8LHyn1ZvPP-53">
          <mxGeometry y="119.5" width="873" height="28" as="geometry" />
        </mxCell>
        <mxCell id="h0L3zIeI5D8LHyn1ZvPP-59" value="obtain_packages_data(package_names: Optional[List[str]], progress_bar: Optional[tqdm.tqdm]) Tuple[List[Dict], List[str]]" style="text;align=left;verticalAlign=top;spacingLeft=4;spacingRight=4;overflow=hidden;rotatable=0;points=[[0,0.5],[1,0.5]];portConstraint=eastwest;labelBackgroundColor=none;rounded=1;fontColor=#FFFFFF;" vertex="1" parent="h0L3zIeI5D8LHyn1ZvPP-53">
          <mxGeometry y="147.5" width="873" height="28" as="geometry" />
        </mxCell>
        <mxCell id="h0L3zIeI5D8LHyn1ZvPP-60" value="ScraperError" style="swimlane;fontStyle=1;align=center;verticalAlign=top;childLayout=stackLayout;horizontal=1;startSize=25;horizontalStack=0;resizeParent=1;resizeParentMax=0;resizeLast=0;collapsible=0;marginBottom=0;labelBackgroundColor=none;fillColor=#182E3E;strokeColor=#FFFFFF;fontColor=#FFFFFF;rounded=1;" vertex="1" parent="1">
          <mxGeometry x="2828" y="78" width="114" height="38" as="geometry" />
        </mxCell>
        <mxCell id="h0L3zIeI5D8LHyn1ZvPP-61" style="line;strokeWidth=1;fillColor=none;align=left;verticalAlign=middle;spacingTop=-1;spacingLeft=3;spacingRight=3;rotatable=0;labelPosition=right;points=[];portConstraint=eastwest;strokeColor=#FFFFFF;labelBackgroundColor=none;fontColor=#FFFFFF;rounded=1;" vertex="1" parent="h0L3zIeI5D8LHyn1ZvPP-60">
          <mxGeometry y="25" width="114" height="13" as="geometry" />
        </mxCell>
        <mxCell id="h0L3zIeI5D8LHyn1ZvPP-62" value="" style="startArrow=none;endArrow=block;endSize=16;endFill=0;exitX=0.5;exitY=0;entryX=0.004;entryY=-0.157;rounded=1;exitDx=0;exitDy=0;entryDx=0;entryDy=0;entryPerimeter=0;edgeStyle=orthogonalEdgeStyle;curved=1;labelBackgroundColor=none;fontColor=default;strokeColor=#23445D;" edge="1" parent="1" source="h0L3zIeI5D8LHyn1ZvPP-6" target="h0L3zIeI5D8LHyn1ZvPP-27">
          <mxGeometry relative="1" as="geometry" />
        </mxCell>
        <mxCell id="h0L3zIeI5D8LHyn1ZvPP-63" value="" style="startArrow=none;endArrow=block;endSize=16;endFill=0;exitX=0.5;exitY=0;rounded=1;exitDx=0;exitDy=0;entryX=1;entryY=0.5;entryDx=0;entryDy=0;edgeStyle=orthogonalEdgeStyle;curved=1;labelBackgroundColor=none;fontColor=default;strokeColor=#23445D;" edge="1" parent="1" source="h0L3zIeI5D8LHyn1ZvPP-33" target="h0L3zIeI5D8LHyn1ZvPP-27">
          <mxGeometry relative="1" as="geometry" />
        </mxCell>
        <mxCell id="h0L3zIeI5D8LHyn1ZvPP-64" value="" style="startArrow=none;endArrow=block;endSize=16;endFill=0;exitX=0.5;exitY=0;entryX=0.057;entryY=-0.021;rounded=1;exitDx=0;exitDy=0;entryDx=0;entryDy=0;entryPerimeter=0;edgeStyle=orthogonalEdgeStyle;curved=1;labelBackgroundColor=none;fontColor=default;strokeColor=#23445D;" edge="1" parent="1" source="h0L3zIeI5D8LHyn1ZvPP-1" target="h0L3zIeI5D8LHyn1ZvPP-53">
          <mxGeometry relative="1" as="geometry">
            <Array as="points">
              <mxPoint x="414" y="360" />
              <mxPoint x="692" y="360" />
            </Array>
          </mxGeometry>
        </mxCell>
        <mxCell id="h0L3zIeI5D8LHyn1ZvPP-65" value="" style="startArrow=none;endArrow=block;endSize=16;endFill=0;exitX=0.49744066674164616;exitY=1;rounded=1;edgeStyle=orthogonalEdgeStyle;curved=1;labelBackgroundColor=none;fontColor=default;strokeColor=#23445D;" edge="1" parent="1" source="h0L3zIeI5D8LHyn1ZvPP-18" target="h0L3zIeI5D8LHyn1ZvPP-53">
          <mxGeometry relative="1" as="geometry">
            <Array as="points">
              <mxPoint x="775" y="354" />
              <mxPoint x="932" y="354" />
            </Array>
          </mxGeometry>
        </mxCell>
        <mxCell id="h0L3zIeI5D8LHyn1ZvPP-66" value="" style="startArrow=none;endArrow=block;endSize=16;endFill=0;exitX=0.5001662396010168;exitY=0.9951923076923077;rounded=1;edgeStyle=orthogonalEdgeStyle;curved=1;labelBackgroundColor=none;fontColor=default;strokeColor=#23445D;" edge="1" parent="1" source="h0L3zIeI5D8LHyn1ZvPP-29" target="h0L3zIeI5D8LHyn1ZvPP-53">
          <mxGeometry relative="1" as="geometry">
            <Array as="points">
              <mxPoint x="966" y="326" />
              <mxPoint x="966" y="326" />
            </Array>
          </mxGeometry>
        </mxCell>
        <mxCell id="h0L3zIeI5D8LHyn1ZvPP-67" value="" style="curved=1;startArrow=none;endArrow=block;endSize=16;endFill=0;exitX=0.25;exitY=1;rounded=1;edgeStyle=orthogonalEdgeStyle;entryX=0.444;entryY=-0.002;entryDx=0;entryDy=0;entryPerimeter=0;exitDx=0;exitDy=0;labelBackgroundColor=none;fontColor=default;strokeColor=#23445D;" edge="1" parent="1" source="h0L3zIeI5D8LHyn1ZvPP-41" target="h0L3zIeI5D8LHyn1ZvPP-53">
          <mxGeometry relative="1" as="geometry">
            <Array as="points">
              <mxPoint x="1177" y="316" />
              <mxPoint x="1177" y="368" />
              <mxPoint x="1030" y="368" />
            </Array>
            <mxPoint x="1120" y="388" as="targetPoint" />
          </mxGeometry>
        </mxCell>
        <mxCell id="h0L3zIeI5D8LHyn1ZvPP-68" value="" style="startArrow=none;endArrow=block;endSize=16;endFill=0;exitX=0.5;exitY=0;rounded=1;exitDx=0;exitDy=0;entryX=0.874;entryY=-0.011;entryDx=0;entryDy=0;entryPerimeter=0;edgeStyle=orthogonalEdgeStyle;curved=1;labelBackgroundColor=none;fontColor=default;strokeColor=#23445D;" edge="1" parent="1" source="h0L3zIeI5D8LHyn1ZvPP-48" target="h0L3zIeI5D8LHyn1ZvPP-53">
          <mxGeometry relative="1" as="geometry">
            <Array as="points">
              <mxPoint x="1573" y="640" />
              <mxPoint x="1573" y="360" />
              <mxPoint x="1405" y="360" />
            </Array>
            <mxPoint x="1430" y="400" as="targetPoint" />
          </mxGeometry>
        </mxCell>
        <mxCell id="h0L3zIeI5D8LHyn1ZvPP-69" value="" style="startArrow=none;endArrow=block;endSize=16;endFill=0;exitX=0.49982815072845077;exitY=0.9971098265895953;entryX=0.5;entryY=0;rounded=1;entryDx=0;entryDy=0;labelBackgroundColor=none;fontColor=default;strokeColor=#23445D;" edge="1" parent="1" source="h0L3zIeI5D8LHyn1ZvPP-53" target="h0L3zIeI5D8LHyn1ZvPP-23">
          <mxGeometry relative="1" as="geometry" />
        </mxCell>
        <mxCell id="h0L3zIeI5D8LHyn1ZvPP-70" value="ListProxyBuilder" style="swimlane;fontStyle=1;align=center;verticalAlign=top;childLayout=stackLayout;horizontal=1;startSize=29.2;horizontalStack=0;resizeParent=1;resizeParentMax=0;resizeLast=0;collapsible=0;marginBottom=0;labelBackgroundColor=none;rounded=1;fillColor=#182E3E;strokeColor=#FFFFFF;fontColor=#FFFFFF;" vertex="1" parent="1">
          <mxGeometry x="414" y="1384" width="143" height="73.2" as="geometry" />
        </mxCell>
        <mxCell id="h0L3zIeI5D8LHyn1ZvPP-71" value="TIMEOUT : int" style="text;align=left;verticalAlign=top;spacingLeft=4;spacingRight=4;overflow=hidden;rotatable=0;points=[[0,0.5],[1,0.5]];portConstraint=eastwest;labelBackgroundColor=none;rounded=1;fontColor=#FFFFFF;" vertex="1" parent="h0L3zIeI5D8LHyn1ZvPP-70">
          <mxGeometry y="29.2" width="143" height="29" as="geometry" />
        </mxCell>
        <mxCell id="h0L3zIeI5D8LHyn1ZvPP-72" style="line;strokeWidth=1;align=left;verticalAlign=middle;spacingTop=-1;spacingLeft=3;spacingRight=3;rotatable=0;labelPosition=right;points=[];portConstraint=eastwest;labelBackgroundColor=none;rounded=1;fillColor=#182E3E;strokeColor=#FFFFFF;fontColor=#FFFFFF;" vertex="1" parent="h0L3zIeI5D8LHyn1ZvPP-70">
          <mxGeometry y="58.2" width="143" height="15" as="geometry" />
        </mxCell>
        <mxCell id="h0L3zIeI5D8LHyn1ZvPP-73" value="ProxyBuilder" style="swimlane;fontStyle=1;align=center;verticalAlign=top;childLayout=stackLayout;horizontal=1;startSize=28.4;horizontalStack=0;resizeParent=1;resizeParentMax=0;resizeLast=0;collapsible=0;marginBottom=0;labelBackgroundColor=none;rounded=1;fillColor=#182E3E;strokeColor=#FFFFFF;fontColor=#FFFFFF;" vertex="1" parent="1">
          <mxGeometry x="431" y="1569" width="296" height="148.4" as="geometry" />
        </mxCell>
        <mxCell id="h0L3zIeI5D8LHyn1ZvPP-74" value="logger : RootLogger, NoneType, Logger" style="text;align=left;verticalAlign=top;spacingLeft=4;spacingRight=4;overflow=hidden;rotatable=0;points=[[0,0.5],[1,0.5]];portConstraint=eastwest;labelBackgroundColor=none;rounded=1;fontColor=#FFFFFF;" vertex="1" parent="h0L3zIeI5D8LHyn1ZvPP-73">
          <mxGeometry y="28.4" width="296" height="28" as="geometry" />
        </mxCell>
        <mxCell id="h0L3zIeI5D8LHyn1ZvPP-75" value="request_timeout : Optional[int]" style="text;align=left;verticalAlign=top;spacingLeft=4;spacingRight=4;overflow=hidden;rotatable=0;points=[[0,0.5],[1,0.5]];portConstraint=eastwest;labelBackgroundColor=none;rounded=1;fontColor=#FFFFFF;" vertex="1" parent="h0L3zIeI5D8LHyn1ZvPP-73">
          <mxGeometry y="56.4" width="296" height="28" as="geometry" />
        </mxCell>
        <mxCell id="h0L3zIeI5D8LHyn1ZvPP-76" value="url : Optional[str]" style="text;align=left;verticalAlign=top;spacingLeft=4;spacingRight=4;overflow=hidden;rotatable=0;points=[[0,0.5],[1,0.5]];portConstraint=eastwest;labelBackgroundColor=none;rounded=1;fontColor=#FFFFFF;" vertex="1" parent="h0L3zIeI5D8LHyn1ZvPP-73">
          <mxGeometry y="84.4" width="296" height="28" as="geometry" />
        </mxCell>
        <mxCell id="h0L3zIeI5D8LHyn1ZvPP-77" style="line;strokeWidth=1;align=left;verticalAlign=middle;spacingTop=-1;spacingLeft=3;spacingRight=3;rotatable=0;labelPosition=right;points=[];portConstraint=eastwest;labelBackgroundColor=none;rounded=1;fillColor=#182E3E;strokeColor=#FFFFFF;fontColor=#FFFFFF;" vertex="1" parent="h0L3zIeI5D8LHyn1ZvPP-73">
          <mxGeometry y="112.4" width="296" height="8" as="geometry" />
        </mxCell>
        <mxCell id="h0L3zIeI5D8LHyn1ZvPP-78" value="get_proxies() List[str]" style="text;align=left;verticalAlign=top;spacingLeft=4;spacingRight=4;overflow=hidden;rotatable=0;points=[[0,0.5],[1,0.5]];portConstraint=eastwest;labelBackgroundColor=none;rounded=1;fontColor=#FFFFFF;" vertex="1" parent="h0L3zIeI5D8LHyn1ZvPP-73">
          <mxGeometry y="120.4" width="296" height="28" as="geometry" />
        </mxCell>
        <mxCell id="h0L3zIeI5D8LHyn1ZvPP-79" value="ProxyHandler" style="swimlane;fontStyle=1;align=center;verticalAlign=top;childLayout=stackLayout;horizontal=1;startSize=26;horizontalStack=0;resizeParent=1;resizeParentMax=0;resizeLast=0;collapsible=0;marginBottom=0;labelBackgroundColor=none;rounded=1;fillColor=#182E3E;strokeColor=#FFFFFF;fontColor=#FFFFFF;" vertex="1" parent="1">
          <mxGeometry x="426" y="1742" width="295" height="242" as="geometry" />
        </mxCell>
        <mxCell id="h0L3zIeI5D8LHyn1ZvPP-80" value="PROXY_MAX_USES : int" style="text;align=left;verticalAlign=top;spacingLeft=4;spacingRight=4;overflow=hidden;rotatable=0;points=[[0,0.5],[1,0.5]];portConstraint=eastwest;labelBackgroundColor=none;rounded=1;fontColor=#FFFFFF;" vertex="1" parent="h0L3zIeI5D8LHyn1ZvPP-79">
          <mxGeometry y="26" width="295" height="26" as="geometry" />
        </mxCell>
        <mxCell id="h0L3zIeI5D8LHyn1ZvPP-81" value="lock : lock" style="text;align=left;verticalAlign=top;spacingLeft=4;spacingRight=4;overflow=hidden;rotatable=0;points=[[0,0.5],[1,0.5]];portConstraint=eastwest;labelBackgroundColor=none;rounded=1;fontColor=#FFFFFF;" vertex="1" parent="h0L3zIeI5D8LHyn1ZvPP-79">
          <mxGeometry y="52" width="295" height="26" as="geometry" />
        </mxCell>
        <mxCell id="h0L3zIeI5D8LHyn1ZvPP-82" value="logger : RootLogger, Logger, NoneType" style="text;align=left;verticalAlign=top;spacingLeft=4;spacingRight=4;overflow=hidden;rotatable=0;points=[[0,0.5],[1,0.5]];portConstraint=eastwest;labelBackgroundColor=none;rounded=1;fontColor=#FFFFFF;" vertex="1" parent="h0L3zIeI5D8LHyn1ZvPP-79">
          <mxGeometry y="78" width="295" height="26" as="geometry" />
        </mxCell>
        <mxCell id="h0L3zIeI5D8LHyn1ZvPP-83" value="proxy_builders : List[ProxyBuilder], list" style="text;align=left;verticalAlign=top;spacingLeft=4;spacingRight=4;overflow=hidden;rotatable=0;points=[[0,0.5],[1,0.5]];portConstraint=eastwest;labelBackgroundColor=none;rounded=1;fontColor=#FFFFFF;" vertex="1" parent="h0L3zIeI5D8LHyn1ZvPP-79">
          <mxGeometry y="104" width="295" height="26" as="geometry" />
        </mxCell>
        <mxCell id="h0L3zIeI5D8LHyn1ZvPP-84" value="proxy_list : List[str], list" style="text;align=left;verticalAlign=top;spacingLeft=4;spacingRight=4;overflow=hidden;rotatable=0;points=[[0,0.5],[1,0.5]];portConstraint=eastwest;labelBackgroundColor=none;rounded=1;fontColor=#FFFFFF;" vertex="1" parent="h0L3zIeI5D8LHyn1ZvPP-79">
          <mxGeometry y="130" width="295" height="26" as="geometry" />
        </mxCell>
        <mxCell id="h0L3zIeI5D8LHyn1ZvPP-85" value="proxy_max_uses : int" style="text;align=left;verticalAlign=top;spacingLeft=4;spacingRight=4;overflow=hidden;rotatable=0;points=[[0,0.5],[1,0.5]];portConstraint=eastwest;labelBackgroundColor=none;rounded=1;fontColor=#FFFFFF;" vertex="1" parent="h0L3zIeI5D8LHyn1ZvPP-79">
          <mxGeometry y="156" width="295" height="26" as="geometry" />
        </mxCell>
        <mxCell id="h0L3zIeI5D8LHyn1ZvPP-86" value="proxy_uses : dict" style="text;align=left;verticalAlign=top;spacingLeft=4;spacingRight=4;overflow=hidden;rotatable=0;points=[[0,0.5],[1,0.5]];portConstraint=eastwest;labelBackgroundColor=none;rounded=1;fontColor=#FFFFFF;" vertex="1" parent="h0L3zIeI5D8LHyn1ZvPP-79">
          <mxGeometry y="182" width="295" height="26" as="geometry" />
        </mxCell>
        <mxCell id="h0L3zIeI5D8LHyn1ZvPP-87" style="line;strokeWidth=1;align=left;verticalAlign=middle;spacingTop=-1;spacingLeft=3;spacingRight=3;rotatable=0;labelPosition=right;points=[];portConstraint=eastwest;labelBackgroundColor=none;rounded=1;fillColor=#182E3E;strokeColor=#FFFFFF;fontColor=#FFFFFF;" vertex="1" parent="h0L3zIeI5D8LHyn1ZvPP-79">
          <mxGeometry y="208" width="295" height="8" as="geometry" />
        </mxCell>
        <mxCell id="h0L3zIeI5D8LHyn1ZvPP-88" value="get_next_proxy() Union[str, None]" style="text;align=left;verticalAlign=top;spacingLeft=4;spacingRight=4;overflow=hidden;rotatable=0;points=[[0,0.5],[1,0.5]];portConstraint=eastwest;labelBackgroundColor=none;rounded=1;fontColor=#FFFFFF;" vertex="1" parent="h0L3zIeI5D8LHyn1ZvPP-79">
          <mxGeometry y="216" width="295" height="26" as="geometry" />
        </mxCell>
        <mxCell id="h0L3zIeI5D8LHyn1ZvPP-89" value="RequestHandler" style="swimlane;fontStyle=1;align=center;verticalAlign=top;childLayout=stackLayout;horizontal=1;startSize=26.375;horizontalStack=0;resizeParent=1;resizeParentMax=0;resizeLast=0;collapsible=0;marginBottom=0;labelBackgroundColor=none;rounded=1;fillColor=#182E3E;strokeColor=#FFFFFF;fontColor=#FFFFFF;" vertex="1" parent="1">
          <mxGeometry x="801" y="1245" width="853" height="216.375" as="geometry" />
        </mxCell>
        <mxCell id="h0L3zIeI5D8LHyn1ZvPP-90" value="PARALLEL_WORKERS : int" style="text;align=left;verticalAlign=top;spacingLeft=4;spacingRight=4;overflow=hidden;rotatable=0;points=[[0,0.5],[1,0.5]];portConstraint=eastwest;labelBackgroundColor=none;rounded=1;fontColor=#FFFFFF;" vertex="1" parent="h0L3zIeI5D8LHyn1ZvPP-89">
          <mxGeometry y="26.375" width="853" height="26" as="geometry" />
        </mxCell>
        <mxCell id="h0L3zIeI5D8LHyn1ZvPP-91" value="jobs_queue : Queue" style="text;align=left;verticalAlign=top;spacingLeft=4;spacingRight=4;overflow=hidden;rotatable=0;points=[[0,0.5],[1,0.5]];portConstraint=eastwest;labelBackgroundColor=none;rounded=1;fontColor=#FFFFFF;" vertex="1" parent="h0L3zIeI5D8LHyn1ZvPP-89">
          <mxGeometry y="52.375" width="853" height="26" as="geometry" />
        </mxCell>
        <mxCell id="h0L3zIeI5D8LHyn1ZvPP-92" value="logger : RootLogger, Logger, NoneType" style="text;align=left;verticalAlign=top;spacingLeft=4;spacingRight=4;overflow=hidden;rotatable=0;points=[[0,0.5],[1,0.5]];portConstraint=eastwest;labelBackgroundColor=none;rounded=1;fontColor=#FFFFFF;" vertex="1" parent="h0L3zIeI5D8LHyn1ZvPP-89">
          <mxGeometry y="78.375" width="853" height="26" as="geometry" />
        </mxCell>
        <mxCell id="h0L3zIeI5D8LHyn1ZvPP-93" value="num_workers : int" style="text;align=left;verticalAlign=top;spacingLeft=4;spacingRight=4;overflow=hidden;rotatable=0;points=[[0,0.5],[1,0.5]];portConstraint=eastwest;labelBackgroundColor=none;rounded=1;fontColor=#FFFFFF;" vertex="1" parent="h0L3zIeI5D8LHyn1ZvPP-89">
          <mxGeometry y="104.375" width="853" height="26" as="geometry" />
        </mxCell>
        <mxCell id="h0L3zIeI5D8LHyn1ZvPP-94" value="workers : List[RequestWorker]" style="text;align=left;verticalAlign=top;spacingLeft=4;spacingRight=4;overflow=hidden;rotatable=0;points=[[0,0.5],[1,0.5]];portConstraint=eastwest;labelBackgroundColor=none;rounded=1;fontColor=#FFFFFF;" vertex="1" parent="h0L3zIeI5D8LHyn1ZvPP-89">
          <mxGeometry y="130.375" width="853" height="26" as="geometry" />
        </mxCell>
        <mxCell id="h0L3zIeI5D8LHyn1ZvPP-95" style="line;strokeWidth=1;align=left;verticalAlign=middle;spacingTop=-1;spacingLeft=3;spacingRight=3;rotatable=0;labelPosition=right;points=[];portConstraint=eastwest;labelBackgroundColor=none;rounded=1;fillColor=#182E3E;strokeColor=#FFFFFF;fontColor=#FFFFFF;" vertex="1" parent="h0L3zIeI5D8LHyn1ZvPP-89">
          <mxGeometry y="156.375" width="853" height="8" as="geometry" />
        </mxCell>
        <mxCell id="h0L3zIeI5D8LHyn1ZvPP-96" value="do_request(job: RequestJob)" style="text;align=left;verticalAlign=top;spacingLeft=4;spacingRight=4;overflow=hidden;rotatable=0;points=[[0,0.5],[1,0.5]];portConstraint=eastwest;labelBackgroundColor=none;rounded=1;fontColor=#FFFFFF;" vertex="1" parent="h0L3zIeI5D8LHyn1ZvPP-89">
          <mxGeometry y="164.375" width="853" height="26" as="geometry" />
        </mxCell>
        <mxCell id="h0L3zIeI5D8LHyn1ZvPP-97" value="do_requests(request_jobs: List[RequestJob], num_workers: int, progress_bar: Optional[tqdm.tqdm]) List[RequestJob]" style="text;align=left;verticalAlign=top;spacingLeft=4;spacingRight=4;overflow=hidden;rotatable=0;points=[[0,0.5],[1,0.5]];portConstraint=eastwest;labelBackgroundColor=none;rounded=1;fontColor=#FFFFFF;" vertex="1" parent="h0L3zIeI5D8LHyn1ZvPP-89">
          <mxGeometry y="190.375" width="853" height="26" as="geometry" />
        </mxCell>
        <mxCell id="h0L3zIeI5D8LHyn1ZvPP-98" value="RequestJob" style="swimlane;fontStyle=1;align=center;verticalAlign=top;childLayout=stackLayout;horizontal=1;startSize=26.375;horizontalStack=0;resizeParent=1;resizeParentMax=0;resizeLast=0;collapsible=0;marginBottom=0;labelBackgroundColor=none;rounded=1;fillColor=#182E3E;strokeColor=#FFFFFF;fontColor=#FFFFFF;" vertex="1" parent="1">
          <mxGeometry x="804" y="1504" width="382" height="216.375" as="geometry" />
        </mxCell>
        <mxCell id="h0L3zIeI5D8LHyn1ZvPP-99" value="FINALIZE_KEY : str" style="text;align=left;verticalAlign=top;spacingLeft=4;spacingRight=4;overflow=hidden;rotatable=0;points=[[0,0.5],[1,0.5]];portConstraint=eastwest;labelBackgroundColor=none;rounded=1;fontColor=#FFFFFF;" vertex="1" parent="h0L3zIeI5D8LHyn1ZvPP-98">
          <mxGeometry y="26.375" width="382" height="26" as="geometry" />
        </mxCell>
        <mxCell id="h0L3zIeI5D8LHyn1ZvPP-100" value="key : object" style="text;align=left;verticalAlign=top;spacingLeft=4;spacingRight=4;overflow=hidden;rotatable=0;points=[[0,0.5],[1,0.5]];portConstraint=eastwest;labelBackgroundColor=none;rounded=1;fontColor=#FFFFFF;" vertex="1" parent="h0L3zIeI5D8LHyn1ZvPP-98">
          <mxGeometry y="52.375" width="382" height="26" as="geometry" />
        </mxCell>
        <mxCell id="h0L3zIeI5D8LHyn1ZvPP-101" value="params : Optional[Dict[str, str]]" style="text;align=left;verticalAlign=top;spacingLeft=4;spacingRight=4;overflow=hidden;rotatable=0;points=[[0,0.5],[1,0.5]];portConstraint=eastwest;labelBackgroundColor=none;rounded=1;fontColor=#FFFFFF;" vertex="1" parent="h0L3zIeI5D8LHyn1ZvPP-98">
          <mxGeometry y="78.375" width="382" height="26" as="geometry" />
        </mxCell>
        <mxCell id="h0L3zIeI5D8LHyn1ZvPP-102" value="response : Response, Optional[requests.Response]" style="text;align=left;verticalAlign=top;spacingLeft=4;spacingRight=4;overflow=hidden;rotatable=0;points=[[0,0.5],[1,0.5]];portConstraint=eastwest;labelBackgroundColor=none;rounded=1;fontColor=#FFFFFF;" vertex="1" parent="h0L3zIeI5D8LHyn1ZvPP-98">
          <mxGeometry y="104.375" width="382" height="26" as="geometry" />
        </mxCell>
        <mxCell id="h0L3zIeI5D8LHyn1ZvPP-103" value="url : Optional[str]" style="text;align=left;verticalAlign=top;spacingLeft=4;spacingRight=4;overflow=hidden;rotatable=0;points=[[0,0.5],[1,0.5]];portConstraint=eastwest;labelBackgroundColor=none;rounded=1;fontColor=#FFFFFF;" vertex="1" parent="h0L3zIeI5D8LHyn1ZvPP-98">
          <mxGeometry y="130.375" width="382" height="26" as="geometry" />
        </mxCell>
        <mxCell id="h0L3zIeI5D8LHyn1ZvPP-104" style="line;strokeWidth=1;align=left;verticalAlign=middle;spacingTop=-1;spacingLeft=3;spacingRight=3;rotatable=0;labelPosition=right;points=[];portConstraint=eastwest;labelBackgroundColor=none;rounded=1;fillColor=#182E3E;strokeColor=#FFFFFF;fontColor=#FFFFFF;" vertex="1" parent="h0L3zIeI5D8LHyn1ZvPP-98">
          <mxGeometry y="156.375" width="382" height="8" as="geometry" />
        </mxCell>
        <mxCell id="h0L3zIeI5D8LHyn1ZvPP-105" value="end_job_signal() RequestJob" style="text;align=left;verticalAlign=top;spacingLeft=4;spacingRight=4;overflow=hidden;rotatable=0;points=[[0,0.5],[1,0.5]];portConstraint=eastwest;labelBackgroundColor=none;rounded=1;fontColor=#FFFFFF;" vertex="1" parent="h0L3zIeI5D8LHyn1ZvPP-98">
          <mxGeometry y="164.375" width="382" height="26" as="geometry" />
        </mxCell>
        <mxCell id="h0L3zIeI5D8LHyn1ZvPP-106" value="set_response(job_response: requests.Response)" style="text;align=left;verticalAlign=top;spacingLeft=4;spacingRight=4;overflow=hidden;rotatable=0;points=[[0,0.5],[1,0.5]];portConstraint=eastwest;labelBackgroundColor=none;rounded=1;fontColor=#FFFFFF;" vertex="1" parent="h0L3zIeI5D8LHyn1ZvPP-98">
          <mxGeometry y="190.375" width="382" height="26" as="geometry" />
        </mxCell>
        <mxCell id="h0L3zIeI5D8LHyn1ZvPP-107" value="RequestWorker" style="swimlane;fontStyle=1;align=center;verticalAlign=top;childLayout=stackLayout;horizontal=1;startSize=25.076923076923077;horizontalStack=0;resizeParent=1;resizeParentMax=0;resizeLast=0;collapsible=0;marginBottom=0;labelBackgroundColor=none;rounded=1;fillColor=#182E3E;strokeColor=#FFFFFF;fontColor=#FFFFFF;" vertex="1" parent="1">
          <mxGeometry x="598" y="2053" width="295" height="333.0769230769231" as="geometry" />
        </mxCell>
        <mxCell id="h0L3zIeI5D8LHyn1ZvPP-108" value="RETRIES : int" style="text;align=left;verticalAlign=top;spacingLeft=4;spacingRight=4;overflow=hidden;rotatable=0;points=[[0,0.5],[1,0.5]];portConstraint=eastwest;labelBackgroundColor=none;rounded=1;fontColor=#FFFFFF;" vertex="1" parent="h0L3zIeI5D8LHyn1ZvPP-107">
          <mxGeometry y="25.076923076923077" width="295" height="25" as="geometry" />
        </mxCell>
        <mxCell id="h0L3zIeI5D8LHyn1ZvPP-109" value="RETRY_DELAY : int" style="text;align=left;verticalAlign=top;spacingLeft=4;spacingRight=4;overflow=hidden;rotatable=0;points=[[0,0.5],[1,0.5]];portConstraint=eastwest;labelBackgroundColor=none;rounded=1;fontColor=#FFFFFF;" vertex="1" parent="h0L3zIeI5D8LHyn1ZvPP-107">
          <mxGeometry y="50.07692307692308" width="295" height="25" as="geometry" />
        </mxCell>
        <mxCell id="h0L3zIeI5D8LHyn1ZvPP-110" value="TIMEOUT : int" style="text;align=left;verticalAlign=top;spacingLeft=4;spacingRight=4;overflow=hidden;rotatable=0;points=[[0,0.5],[1,0.5]];portConstraint=eastwest;labelBackgroundColor=none;rounded=1;fontColor=#FFFFFF;" vertex="1" parent="h0L3zIeI5D8LHyn1ZvPP-107">
          <mxGeometry y="75.07692307692308" width="295" height="25" as="geometry" />
        </mxCell>
        <mxCell id="h0L3zIeI5D8LHyn1ZvPP-111" value="jobs_queue : Queue" style="text;align=left;verticalAlign=top;spacingLeft=4;spacingRight=4;overflow=hidden;rotatable=0;points=[[0,0.5],[1,0.5]];portConstraint=eastwest;labelBackgroundColor=none;rounded=1;fontColor=#FFFFFF;" vertex="1" parent="h0L3zIeI5D8LHyn1ZvPP-107">
          <mxGeometry y="100.07692307692308" width="295" height="25" as="geometry" />
        </mxCell>
        <mxCell id="h0L3zIeI5D8LHyn1ZvPP-112" value="logger : RootLogger, Logger, NoneType" style="text;align=left;verticalAlign=top;spacingLeft=4;spacingRight=4;overflow=hidden;rotatable=0;points=[[0,0.5],[1,0.5]];portConstraint=eastwest;labelBackgroundColor=none;rounded=1;fontColor=#FFFFFF;" vertex="1" parent="h0L3zIeI5D8LHyn1ZvPP-107">
          <mxGeometry y="125.07692307692308" width="295" height="25" as="geometry" />
        </mxCell>
        <mxCell id="h0L3zIeI5D8LHyn1ZvPP-113" value="my_jobs : list" style="text;align=left;verticalAlign=top;spacingLeft=4;spacingRight=4;overflow=hidden;rotatable=0;points=[[0,0.5],[1,0.5]];portConstraint=eastwest;labelBackgroundColor=none;rounded=1;fontColor=#FFFFFF;" vertex="1" parent="h0L3zIeI5D8LHyn1ZvPP-107">
          <mxGeometry y="150.0769230769231" width="295" height="25" as="geometry" />
        </mxCell>
        <mxCell id="h0L3zIeI5D8LHyn1ZvPP-114" value="progress_bar : Optional[tqdm.tqdm]" style="text;align=left;verticalAlign=top;spacingLeft=4;spacingRight=4;overflow=hidden;rotatable=0;points=[[0,0.5],[1,0.5]];portConstraint=eastwest;labelBackgroundColor=none;rounded=1;fontColor=#FFFFFF;" vertex="1" parent="h0L3zIeI5D8LHyn1ZvPP-107">
          <mxGeometry y="175.0769230769231" width="295" height="25" as="geometry" />
        </mxCell>
        <mxCell id="h0L3zIeI5D8LHyn1ZvPP-115" value="proxy_handler" style="text;align=left;verticalAlign=top;spacingLeft=4;spacingRight=4;overflow=hidden;rotatable=0;points=[[0,0.5],[1,0.5]];portConstraint=eastwest;labelBackgroundColor=none;rounded=1;fontColor=#FFFFFF;" vertex="1" parent="h0L3zIeI5D8LHyn1ZvPP-107">
          <mxGeometry y="200.0769230769231" width="295" height="25" as="geometry" />
        </mxCell>
        <mxCell id="h0L3zIeI5D8LHyn1ZvPP-116" value="stopped : bool" style="text;align=left;verticalAlign=top;spacingLeft=4;spacingRight=4;overflow=hidden;rotatable=0;points=[[0,0.5],[1,0.5]];portConstraint=eastwest;labelBackgroundColor=none;rounded=1;fontColor=#FFFFFF;" vertex="1" parent="h0L3zIeI5D8LHyn1ZvPP-107">
          <mxGeometry y="225.0769230769231" width="295" height="25" as="geometry" />
        </mxCell>
        <mxCell id="h0L3zIeI5D8LHyn1ZvPP-117" value="user_agent_handler" style="text;align=left;verticalAlign=top;spacingLeft=4;spacingRight=4;overflow=hidden;rotatable=0;points=[[0,0.5],[1,0.5]];portConstraint=eastwest;labelBackgroundColor=none;rounded=1;fontColor=#FFFFFF;" vertex="1" parent="h0L3zIeI5D8LHyn1ZvPP-107">
          <mxGeometry y="250.0769230769231" width="295" height="25" as="geometry" />
        </mxCell>
        <mxCell id="h0L3zIeI5D8LHyn1ZvPP-118" value="worker_id : int" style="text;align=left;verticalAlign=top;spacingLeft=4;spacingRight=4;overflow=hidden;rotatable=0;points=[[0,0.5],[1,0.5]];portConstraint=eastwest;labelBackgroundColor=none;rounded=1;fontColor=#FFFFFF;" vertex="1" parent="h0L3zIeI5D8LHyn1ZvPP-107">
          <mxGeometry y="275.0769230769231" width="295" height="25" as="geometry" />
        </mxCell>
        <mxCell id="h0L3zIeI5D8LHyn1ZvPP-119" style="line;strokeWidth=1;align=left;verticalAlign=middle;spacingTop=-1;spacingLeft=3;spacingRight=3;rotatable=0;labelPosition=right;points=[];portConstraint=eastwest;labelBackgroundColor=none;rounded=1;fillColor=#182E3E;strokeColor=#FFFFFF;fontColor=#FFFFFF;" vertex="1" parent="h0L3zIeI5D8LHyn1ZvPP-107">
          <mxGeometry y="300.0769230769231" width="295" height="8" as="geometry" />
        </mxCell>
        <mxCell id="h0L3zIeI5D8LHyn1ZvPP-120" value="run()" style="text;align=left;verticalAlign=top;spacingLeft=4;spacingRight=4;overflow=hidden;rotatable=0;points=[[0,0.5],[1,0.5]];portConstraint=eastwest;labelBackgroundColor=none;rounded=1;fontColor=#FFFFFF;" vertex="1" parent="h0L3zIeI5D8LHyn1ZvPP-107">
          <mxGeometry y="308.0769230769231" width="295" height="25" as="geometry" />
        </mxCell>
        <mxCell id="h0L3zIeI5D8LHyn1ZvPP-121" value="SSLProxiesBuilder" style="swimlane;fontStyle=1;align=center;verticalAlign=top;childLayout=stackLayout;horizontal=1;startSize=25;horizontalStack=0;resizeParent=1;resizeParentMax=0;resizeLast=0;collapsible=0;marginBottom=0;labelBackgroundColor=none;rounded=1;fillColor=#182E3E;strokeColor=#FFFFFF;fontColor=#FFFFFF;" vertex="1" parent="1">
          <mxGeometry x="607" y="1395" width="159" height="38" as="geometry" />
        </mxCell>
        <mxCell id="h0L3zIeI5D8LHyn1ZvPP-122" style="line;strokeWidth=1;align=left;verticalAlign=middle;spacingTop=-1;spacingLeft=3;spacingRight=3;rotatable=0;labelPosition=right;points=[];portConstraint=eastwest;labelBackgroundColor=none;rounded=1;fillColor=#182E3E;strokeColor=#FFFFFF;fontColor=#FFFFFF;" vertex="1" parent="h0L3zIeI5D8LHyn1ZvPP-121">
          <mxGeometry y="25" width="159" height="13" as="geometry" />
        </mxCell>
        <mxCell id="h0L3zIeI5D8LHyn1ZvPP-123" value="UserAgentHandler" style="swimlane;fontStyle=1;align=center;verticalAlign=top;childLayout=stackLayout;horizontal=1;startSize=26;horizontalStack=0;resizeParent=1;resizeParentMax=0;resizeLast=0;collapsible=0;marginBottom=0;labelBackgroundColor=none;rounded=1;fillColor=#182E3E;strokeColor=#FFFFFF;fontColor=#FFFFFF;" vertex="1" parent="1">
          <mxGeometry x="771" y="1742" width="296" height="242" as="geometry" />
        </mxCell>
        <mxCell id="h0L3zIeI5D8LHyn1ZvPP-124" value="DATA_FILE" style="text;align=left;verticalAlign=top;spacingLeft=4;spacingRight=4;overflow=hidden;rotatable=0;points=[[0,0.5],[1,0.5]];portConstraint=eastwest;labelBackgroundColor=none;rounded=1;fontColor=#FFFFFF;" vertex="1" parent="h0L3zIeI5D8LHyn1ZvPP-123">
          <mxGeometry y="26" width="296" height="26" as="geometry" />
        </mxCell>
        <mxCell id="h0L3zIeI5D8LHyn1ZvPP-125" value="DATA_FILE : str" style="text;align=left;verticalAlign=top;spacingLeft=4;spacingRight=4;overflow=hidden;rotatable=0;points=[[0,0.5],[1,0.5]];portConstraint=eastwest;labelBackgroundColor=none;rounded=1;fontColor=#FFFFFF;" vertex="1" parent="h0L3zIeI5D8LHyn1ZvPP-123">
          <mxGeometry y="52" width="296" height="26" as="geometry" />
        </mxCell>
        <mxCell id="h0L3zIeI5D8LHyn1ZvPP-126" value="USERAGENTSTRING_URL : str" style="text;align=left;verticalAlign=top;spacingLeft=4;spacingRight=4;overflow=hidden;rotatable=0;points=[[0,0.5],[1,0.5]];portConstraint=eastwest;labelBackgroundColor=none;rounded=1;fontColor=#FFFFFF;" vertex="1" parent="h0L3zIeI5D8LHyn1ZvPP-123">
          <mxGeometry y="78" width="296" height="26" as="geometry" />
        </mxCell>
        <mxCell id="h0L3zIeI5D8LHyn1ZvPP-127" value="lock : lock" style="text;align=left;verticalAlign=top;spacingLeft=4;spacingRight=4;overflow=hidden;rotatable=0;points=[[0,0.5],[1,0.5]];portConstraint=eastwest;labelBackgroundColor=none;rounded=1;fontColor=#FFFFFF;" vertex="1" parent="h0L3zIeI5D8LHyn1ZvPP-123">
          <mxGeometry y="104" width="296" height="26" as="geometry" />
        </mxCell>
        <mxCell id="h0L3zIeI5D8LHyn1ZvPP-128" value="logger : Logger, NoneType, RootLogger" style="text;align=left;verticalAlign=top;spacingLeft=4;spacingRight=4;overflow=hidden;rotatable=0;points=[[0,0.5],[1,0.5]];portConstraint=eastwest;labelBackgroundColor=none;rounded=1;fontColor=#FFFFFF;" vertex="1" parent="h0L3zIeI5D8LHyn1ZvPP-123">
          <mxGeometry y="130" width="296" height="26" as="geometry" />
        </mxCell>
        <mxCell id="h0L3zIeI5D8LHyn1ZvPP-129" value="useragents_list : List[str]" style="text;align=left;verticalAlign=top;spacingLeft=4;spacingRight=4;overflow=hidden;rotatable=0;points=[[0,0.5],[1,0.5]];portConstraint=eastwest;labelBackgroundColor=none;rounded=1;fontColor=#FFFFFF;" vertex="1" parent="h0L3zIeI5D8LHyn1ZvPP-123">
          <mxGeometry y="156" width="296" height="26" as="geometry" />
        </mxCell>
        <mxCell id="h0L3zIeI5D8LHyn1ZvPP-130" value="useragents_list : list" style="text;align=left;verticalAlign=top;spacingLeft=4;spacingRight=4;overflow=hidden;rotatable=0;points=[[0,0.5],[1,0.5]];portConstraint=eastwest;labelBackgroundColor=none;rounded=1;fontColor=#FFFFFF;" vertex="1" parent="h0L3zIeI5D8LHyn1ZvPP-123">
          <mxGeometry y="182" width="296" height="26" as="geometry" />
        </mxCell>
        <mxCell id="h0L3zIeI5D8LHyn1ZvPP-131" style="line;strokeWidth=1;align=left;verticalAlign=middle;spacingTop=-1;spacingLeft=3;spacingRight=3;rotatable=0;labelPosition=right;points=[];portConstraint=eastwest;labelBackgroundColor=none;rounded=1;fillColor=#182E3E;strokeColor=#FFFFFF;fontColor=#FFFFFF;" vertex="1" parent="h0L3zIeI5D8LHyn1ZvPP-123">
          <mxGeometry y="208" width="296" height="8" as="geometry" />
        </mxCell>
        <mxCell id="h0L3zIeI5D8LHyn1ZvPP-132" value="get_next_useragent() str" style="text;align=left;verticalAlign=top;spacingLeft=4;spacingRight=4;overflow=hidden;rotatable=0;points=[[0,0.5],[1,0.5]];portConstraint=eastwest;labelBackgroundColor=none;rounded=1;fontColor=#FFFFFF;" vertex="1" parent="h0L3zIeI5D8LHyn1ZvPP-123">
          <mxGeometry y="216" width="296" height="26" as="geometry" />
        </mxCell>
        <mxCell id="h0L3zIeI5D8LHyn1ZvPP-133" value="" style="curved=1;startArrow=none;endArrow=block;endSize=16;endFill=0;exitX=0.5001165750143411;exitY=0.9938271604938271;entryX=0.37371685055450093;entryY=0;rounded=1;labelBackgroundColor=none;fontColor=default;strokeColor=#23445D;" edge="1" parent="1" source="h0L3zIeI5D8LHyn1ZvPP-70" target="h0L3zIeI5D8LHyn1ZvPP-73">
          <mxGeometry relative="1" as="geometry">
            <Array as="points">
              <mxPoint x="479" y="1443" />
            </Array>
          </mxGeometry>
        </mxCell>
        <mxCell id="h0L3zIeI5D8LHyn1ZvPP-134" value="" style="curved=1;startArrow=none;endArrow=block;endSize=16;endFill=0;exitX=0.5003145325858638;exitY=1;entryX=0.6265084227840231;entryY=0;rounded=1;labelBackgroundColor=none;fontColor=default;strokeColor=#23445D;" edge="1" parent="1" source="h0L3zIeI5D8LHyn1ZvPP-121" target="h0L3zIeI5D8LHyn1ZvPP-73">
          <mxGeometry relative="1" as="geometry">
            <Array as="points">
              <mxPoint x="680" y="1443" />
            </Array>
          </mxGeometry>
        </mxCell>
        <mxCell id="h0L3zIeI5D8LHyn1ZvPP-135" value="proxy_handler" style="curved=1;startArrow=none;endArrow=diamondThin;endSize=14;endFill=1;exitX=0.49903957560911016;exitY=1;entryX=0.01631204332601232;entryY=0;rounded=1;labelBackgroundColor=none;fontColor=default;strokeColor=#23445D;" edge="1" parent="1" source="h0L3zIeI5D8LHyn1ZvPP-79" target="h0L3zIeI5D8LHyn1ZvPP-107">
          <mxGeometry relative="1" as="geometry">
            <Array as="points">
              <mxPoint x="573" y="2019" />
            </Array>
          </mxGeometry>
        </mxCell>
        <mxCell id="h0L3zIeI5D8LHyn1ZvPP-136" value="user_agent_handler" style="curved=1;startArrow=none;endArrow=diamondThin;endSize=14;endFill=1;exitX=0.4997466319316142;exitY=1;entryX=0.9875580511026151;entryY=0;rounded=1;labelBackgroundColor=none;fontColor=default;strokeColor=#23445D;" edge="1" parent="1" source="h0L3zIeI5D8LHyn1ZvPP-123" target="h0L3zIeI5D8LHyn1ZvPP-107">
          <mxGeometry relative="1" as="geometry">
            <Array as="points">
              <mxPoint x="919" y="2019" />
            </Array>
          </mxGeometry>
        </mxCell>
        <mxCell id="h0L3zIeI5D8LHyn1ZvPP-137" value="Package" style="swimlane;fontStyle=1;align=center;verticalAlign=top;childLayout=stackLayout;horizontal=1;startSize=25.454545454545453;horizontalStack=0;resizeParent=1;resizeParentMax=0;resizeLast=0;collapsible=0;marginBottom=0;labelBackgroundColor=none;rounded=1;fillColor=#182E3E;strokeColor=#FFFFFF;fontColor=#FFFFFF;" vertex="1" parent="1">
          <mxGeometry x="232" y="2452" width="278" height="283.45454545454544" as="geometry" />
        </mxCell>
        <mxCell id="h0L3zIeI5D8LHyn1ZvPP-138" value="dependencies : list, List[Package]" style="text;align=left;verticalAlign=top;spacingLeft=4;spacingRight=4;overflow=hidden;rotatable=0;points=[[0,0.5],[1,0.5]];portConstraint=eastwest;labelBackgroundColor=none;rounded=1;fontColor=#FFFFFF;" vertex="1" parent="h0L3zIeI5D8LHyn1ZvPP-137">
          <mxGeometry y="25.454545454545453" width="278" height="25" as="geometry" />
        </mxCell>
        <mxCell id="h0L3zIeI5D8LHyn1ZvPP-139" value="name : str" style="text;align=left;verticalAlign=top;spacingLeft=4;spacingRight=4;overflow=hidden;rotatable=0;points=[[0,0.5],[1,0.5]];portConstraint=eastwest;labelBackgroundColor=none;rounded=1;fontColor=#FFFFFF;" vertex="1" parent="h0L3zIeI5D8LHyn1ZvPP-137">
          <mxGeometry y="50.45454545454545" width="278" height="25" as="geometry" />
        </mxCell>
        <mxCell id="h0L3zIeI5D8LHyn1ZvPP-140" value="url : Optional[str]" style="text;align=left;verticalAlign=top;spacingLeft=4;spacingRight=4;overflow=hidden;rotatable=0;points=[[0,0.5],[1,0.5]];portConstraint=eastwest;labelBackgroundColor=none;rounded=1;fontColor=#FFFFFF;" vertex="1" parent="h0L3zIeI5D8LHyn1ZvPP-137">
          <mxGeometry y="75.45454545454545" width="278" height="25" as="geometry" />
        </mxCell>
        <mxCell id="h0L3zIeI5D8LHyn1ZvPP-141" value="version : Optional[str]" style="text;align=left;verticalAlign=top;spacingLeft=4;spacingRight=4;overflow=hidden;rotatable=0;points=[[0,0.5],[1,0.5]];portConstraint=eastwest;labelBackgroundColor=none;rounded=1;fontColor=#FFFFFF;" vertex="1" parent="h0L3zIeI5D8LHyn1ZvPP-137">
          <mxGeometry y="100.45454545454545" width="278" height="25" as="geometry" />
        </mxCell>
        <mxCell id="h0L3zIeI5D8LHyn1ZvPP-142" style="line;strokeWidth=1;align=left;verticalAlign=middle;spacingTop=-1;spacingLeft=3;spacingRight=3;rotatable=0;labelPosition=right;points=[];portConstraint=eastwest;labelBackgroundColor=none;rounded=1;fillColor=#182E3E;strokeColor=#FFFFFF;fontColor=#FFFFFF;" vertex="1" parent="h0L3zIeI5D8LHyn1ZvPP-137">
          <mxGeometry y="125.45454545454545" width="278" height="8" as="geometry" />
        </mxCell>
        <mxCell id="h0L3zIeI5D8LHyn1ZvPP-143" value="get_dependencies() List[Package]" style="text;align=left;verticalAlign=top;spacingLeft=4;spacingRight=4;overflow=hidden;rotatable=0;points=[[0,0.5],[1,0.5]];portConstraint=eastwest;labelBackgroundColor=none;rounded=1;fontColor=#FFFFFF;" vertex="1" parent="h0L3zIeI5D8LHyn1ZvPP-137">
          <mxGeometry y="133.45454545454544" width="278" height="25" as="geometry" />
        </mxCell>
        <mxCell id="h0L3zIeI5D8LHyn1ZvPP-144" value="get_dependencies_names() List[str]" style="text;align=left;verticalAlign=top;spacingLeft=4;spacingRight=4;overflow=hidden;rotatable=0;points=[[0,0.5],[1,0.5]];portConstraint=eastwest;labelBackgroundColor=none;rounded=1;fontColor=#FFFFFF;" vertex="1" parent="h0L3zIeI5D8LHyn1ZvPP-137">
          <mxGeometry y="158.45454545454544" width="278" height="25" as="geometry" />
        </mxCell>
        <mxCell id="h0L3zIeI5D8LHyn1ZvPP-145" value="load(data: dict)" style="text;align=left;verticalAlign=top;spacingLeft=4;spacingRight=4;overflow=hidden;rotatable=0;points=[[0,0.5],[1,0.5]];portConstraint=eastwest;labelBackgroundColor=none;rounded=1;fontColor=#FFFFFF;" vertex="1" parent="h0L3zIeI5D8LHyn1ZvPP-137">
          <mxGeometry y="183.45454545454544" width="278" height="25" as="geometry" />
        </mxCell>
        <mxCell id="h0L3zIeI5D8LHyn1ZvPP-146" value="print()" style="text;align=left;verticalAlign=top;spacingLeft=4;spacingRight=4;overflow=hidden;rotatable=0;points=[[0,0.5],[1,0.5]];portConstraint=eastwest;labelBackgroundColor=none;rounded=1;fontColor=#FFFFFF;" vertex="1" parent="h0L3zIeI5D8LHyn1ZvPP-137">
          <mxGeometry y="208.45454545454544" width="278" height="25" as="geometry" />
        </mxCell>
        <mxCell id="h0L3zIeI5D8LHyn1ZvPP-147" value="to_dict()" style="text;align=left;verticalAlign=top;spacingLeft=4;spacingRight=4;overflow=hidden;rotatable=0;points=[[0,0.5],[1,0.5]];portConstraint=eastwest;labelBackgroundColor=none;rounded=1;fontColor=#FFFFFF;" vertex="1" parent="h0L3zIeI5D8LHyn1ZvPP-137">
          <mxGeometry y="233.45454545454544" width="278" height="25" as="geometry" />
        </mxCell>
        <mxCell id="h0L3zIeI5D8LHyn1ZvPP-148" value="update(data: dict)" style="text;align=left;verticalAlign=top;spacingLeft=4;spacingRight=4;overflow=hidden;rotatable=0;points=[[0,0.5],[1,0.5]];portConstraint=eastwest;labelBackgroundColor=none;rounded=1;fontColor=#FFFFFF;" vertex="1" parent="h0L3zIeI5D8LHyn1ZvPP-137">
          <mxGeometry y="258.45454545454544" width="278" height="25" as="geometry" />
        </mxCell>
        <mxCell id="h0L3zIeI5D8LHyn1ZvPP-175" value="PackageManager" style="swimlane;fontStyle=1;align=center;verticalAlign=top;childLayout=stackLayout;horizontal=1;startSize=24.42105263157895;horizontalStack=0;resizeParent=1;resizeParentMax=0;resizeLast=0;collapsible=0;marginBottom=0;labelBackgroundColor=none;rounded=1;fillColor=#182E3E;strokeColor=#FFFFFF;fontColor=#FFFFFF;" vertex="1" parent="1">
          <mxGeometry x="704" y="2438" width="587" height="464.42105263157896" as="geometry" />
        </mxCell>
        <mxCell id="h0L3zIeI5D8LHyn1ZvPP-176" value="data_sources : Optional[List[DataSource]]" style="text;align=left;verticalAlign=top;spacingLeft=4;spacingRight=4;overflow=hidden;rotatable=0;points=[[0,0.5],[1,0.5]];portConstraint=eastwest;labelBackgroundColor=none;rounded=1;fontColor=#FFFFFF;" vertex="1" parent="h0L3zIeI5D8LHyn1ZvPP-175">
          <mxGeometry y="24.42105263157895" width="587" height="24" as="geometry" />
        </mxCell>
        <mxCell id="h0L3zIeI5D8LHyn1ZvPP-177" value="logger : NoneType, Logger, RootLogger" style="text;align=left;verticalAlign=top;spacingLeft=4;spacingRight=4;overflow=hidden;rotatable=0;points=[[0,0.5],[1,0.5]];portConstraint=eastwest;labelBackgroundColor=none;rounded=1;fontColor=#FFFFFF;" vertex="1" parent="h0L3zIeI5D8LHyn1ZvPP-175">
          <mxGeometry y="48.421052631578945" width="587" height="24" as="geometry" />
        </mxCell>
        <mxCell id="h0L3zIeI5D8LHyn1ZvPP-178" value="packages : Dict[str, Package]" style="text;align=left;verticalAlign=top;spacingLeft=4;spacingRight=4;overflow=hidden;rotatable=0;points=[[0,0.5],[1,0.5]];portConstraint=eastwest;labelBackgroundColor=none;rounded=1;fontColor=#FFFFFF;" vertex="1" parent="h0L3zIeI5D8LHyn1ZvPP-175">
          <mxGeometry y="72.42105263157895" width="587" height="24" as="geometry" />
        </mxCell>
        <mxCell id="h0L3zIeI5D8LHyn1ZvPP-179" style="line;strokeWidth=1;align=left;verticalAlign=middle;spacingTop=-1;spacingLeft=3;spacingRight=3;rotatable=0;labelPosition=right;points=[];portConstraint=eastwest;labelBackgroundColor=none;rounded=1;fillColor=#182E3E;strokeColor=#FFFFFF;fontColor=#FFFFFF;" vertex="1" parent="h0L3zIeI5D8LHyn1ZvPP-175">
          <mxGeometry y="96.42105263157895" width="587" height="8" as="geometry" />
        </mxCell>
        <mxCell id="h0L3zIeI5D8LHyn1ZvPP-180" value="export_dataframe(full_data) pd.DataFrame" style="text;align=left;verticalAlign=top;spacingLeft=4;spacingRight=4;overflow=hidden;rotatable=0;points=[[0,0.5],[1,0.5]];portConstraint=eastwest;labelBackgroundColor=none;rounded=1;fontColor=#FFFFFF;" vertex="1" parent="h0L3zIeI5D8LHyn1ZvPP-175">
          <mxGeometry y="104.42105263157895" width="587" height="24" as="geometry" />
        </mxCell>
        <mxCell id="h0L3zIeI5D8LHyn1ZvPP-181" value="fetch_adjlist(package_name: str, deep_level: int, adjlist: dict) Dict[str, List[str]]" style="text;align=left;verticalAlign=top;spacingLeft=4;spacingRight=4;overflow=hidden;rotatable=0;points=[[0,0.5],[1,0.5]];portConstraint=eastwest;labelBackgroundColor=none;rounded=1;fontColor=#FFFFFF;" vertex="1" parent="h0L3zIeI5D8LHyn1ZvPP-175">
          <mxGeometry y="128.42105263157896" width="587" height="24" as="geometry" />
        </mxCell>
        <mxCell id="h0L3zIeI5D8LHyn1ZvPP-182" value="fetch_package(package_name: str) Union[Package, None]" style="text;align=left;verticalAlign=top;spacingLeft=4;spacingRight=4;overflow=hidden;rotatable=0;points=[[0,0.5],[1,0.5]];portConstraint=eastwest;labelBackgroundColor=none;rounded=1;fontColor=#FFFFFF;" vertex="1" parent="h0L3zIeI5D8LHyn1ZvPP-175">
          <mxGeometry y="152.42105263157896" width="587" height="24" as="geometry" />
        </mxCell>
        <mxCell id="h0L3zIeI5D8LHyn1ZvPP-183" value="fetch_package_names() List[str]" style="text;align=left;verticalAlign=top;spacingLeft=4;spacingRight=4;overflow=hidden;rotatable=0;points=[[0,0.5],[1,0.5]];portConstraint=eastwest;labelBackgroundColor=none;rounded=1;fontColor=#FFFFFF;" vertex="1" parent="h0L3zIeI5D8LHyn1ZvPP-175">
          <mxGeometry y="176.42105263157896" width="587" height="24" as="geometry" />
        </mxCell>
        <mxCell id="h0L3zIeI5D8LHyn1ZvPP-184" value="fetch_packages(package_names: List[str], progress_bar: Optional[tqdm.tqdm], extend: bool) List[Package]" style="text;align=left;verticalAlign=top;spacingLeft=4;spacingRight=4;overflow=hidden;rotatable=0;points=[[0,0.5],[1,0.5]];portConstraint=eastwest;labelBackgroundColor=none;rounded=1;fontColor=#FFFFFF;" vertex="1" parent="h0L3zIeI5D8LHyn1ZvPP-175">
          <mxGeometry y="200.42105263157896" width="587" height="24" as="geometry" />
        </mxCell>
        <mxCell id="h0L3zIeI5D8LHyn1ZvPP-185" value="get_adjlist(package_name: str, adjlist: Optional[Dict], deep_level: int) Dict[str, List[str]]" style="text;align=left;verticalAlign=top;spacingLeft=4;spacingRight=4;overflow=hidden;rotatable=0;points=[[0,0.5],[1,0.5]];portConstraint=eastwest;labelBackgroundColor=none;rounded=1;fontColor=#FFFFFF;" vertex="1" parent="h0L3zIeI5D8LHyn1ZvPP-175">
          <mxGeometry y="224.42105263157896" width="587" height="24" as="geometry" />
        </mxCell>
        <mxCell id="h0L3zIeI5D8LHyn1ZvPP-186" value="get_network_graph(chunk_size, source_field, target_field, filter_field, filter_value) nx.DiGraph" style="text;align=left;verticalAlign=top;spacingLeft=4;spacingRight=4;overflow=hidden;rotatable=0;points=[[0,0.5],[1,0.5]];portConstraint=eastwest;labelBackgroundColor=none;rounded=1;fontColor=#FFFFFF;" vertex="1" parent="h0L3zIeI5D8LHyn1ZvPP-175">
          <mxGeometry y="248.42105263157896" width="587" height="24" as="geometry" />
        </mxCell>
        <mxCell id="h0L3zIeI5D8LHyn1ZvPP-187" value="get_package(package_name: str) Union[Package, None]" style="text;align=left;verticalAlign=top;spacingLeft=4;spacingRight=4;overflow=hidden;rotatable=0;points=[[0,0.5],[1,0.5]];portConstraint=eastwest;labelBackgroundColor=none;rounded=1;fontColor=#FFFFFF;" vertex="1" parent="h0L3zIeI5D8LHyn1ZvPP-175">
          <mxGeometry y="272.42105263157896" width="587" height="24" as="geometry" />
        </mxCell>
        <mxCell id="h0L3zIeI5D8LHyn1ZvPP-188" value="get_packages() List[Package]" style="text;align=left;verticalAlign=top;spacingLeft=4;spacingRight=4;overflow=hidden;rotatable=0;points=[[0,0.5],[1,0.5]];portConstraint=eastwest;labelBackgroundColor=none;rounded=1;fontColor=#FFFFFF;" vertex="1" parent="h0L3zIeI5D8LHyn1ZvPP-175">
          <mxGeometry y="296.42105263157896" width="587" height="24" as="geometry" />
        </mxCell>
        <mxCell id="h0L3zIeI5D8LHyn1ZvPP-189" value="get_transitive_network_graph(package_name: str, deep_level: int, generate) nx.DiGraph" style="text;align=left;verticalAlign=top;spacingLeft=4;spacingRight=4;overflow=hidden;rotatable=0;points=[[0,0.5],[1,0.5]];portConstraint=eastwest;labelBackgroundColor=none;rounded=1;fontColor=#FFFFFF;" vertex="1" parent="h0L3zIeI5D8LHyn1ZvPP-175">
          <mxGeometry y="320.42105263157896" width="587" height="24" as="geometry" />
        </mxCell>
        <mxCell id="h0L3zIeI5D8LHyn1ZvPP-190" value="initialize(package_names: Optional[List[str]], show_progress: Optional[bool], ...)" style="text;align=left;verticalAlign=top;spacingLeft=4;spacingRight=4;overflow=hidden;rotatable=0;points=[[0,0.5],[1,0.5]];portConstraint=eastwest;labelBackgroundColor=none;rounded=1;fontColor=#FFFFFF;" vertex="1" parent="h0L3zIeI5D8LHyn1ZvPP-175">
          <mxGeometry y="344.42105263157896" width="587" height="24" as="geometry" />
        </mxCell>
        <mxCell id="h0L3zIeI5D8LHyn1ZvPP-191" value="load_from_csv(csv_path: str, dependent_field: Optional[str],...) PackageManager" style="text;align=left;verticalAlign=top;spacingLeft=4;spacingRight=4;overflow=hidden;rotatable=0;points=[[0,0.5],[1,0.5]];portConstraint=eastwest;labelBackgroundColor=none;rounded=1;fontColor=#FFFFFF;" vertex="1" parent="h0L3zIeI5D8LHyn1ZvPP-175">
          <mxGeometry y="368.42105263157896" width="587" height="24" as="geometry" />
        </mxCell>
        <mxCell id="h0L3zIeI5D8LHyn1ZvPP-192" value="load_from_persistence(path: str)" style="text;align=left;verticalAlign=top;spacingLeft=4;spacingRight=4;overflow=hidden;rotatable=0;points=[[0,0.5],[1,0.5]];portConstraint=eastwest;labelBackgroundColor=none;rounded=1;fontColor=#FFFFFF;" vertex="1" parent="h0L3zIeI5D8LHyn1ZvPP-175">
          <mxGeometry y="392.42105263157896" width="587" height="24" as="geometry" />
        </mxCell>
        <mxCell id="h0L3zIeI5D8LHyn1ZvPP-193" value="package_names() List[str]" style="text;align=left;verticalAlign=top;spacingLeft=4;spacingRight=4;overflow=hidden;rotatable=0;points=[[0,0.5],[1,0.5]];portConstraint=eastwest;labelBackgroundColor=none;rounded=1;fontColor=#FFFFFF;" vertex="1" parent="h0L3zIeI5D8LHyn1ZvPP-175">
          <mxGeometry y="416.42105263157896" width="587" height="24" as="geometry" />
        </mxCell>
        <mxCell id="h0L3zIeI5D8LHyn1ZvPP-194" value="save(path: str)" style="text;align=left;verticalAlign=top;spacingLeft=4;spacingRight=4;overflow=hidden;rotatable=0;points=[[0,0.5],[1,0.5]];portConstraint=eastwest;labelBackgroundColor=none;rounded=1;fontColor=#FFFFFF;" vertex="1" parent="h0L3zIeI5D8LHyn1ZvPP-175">
          <mxGeometry y="440.42105263157896" width="587" height="24" as="geometry" />
        </mxCell>
        <mxCell id="h0L3zIeI5D8LHyn1ZvPP-195" value="PackageManagerLoadError" style="swimlane;fontStyle=1;align=center;verticalAlign=top;childLayout=stackLayout;horizontal=1;startSize=29.2;horizontalStack=0;resizeParent=1;resizeParentMax=0;resizeLast=0;collapsible=0;marginBottom=0;labelBackgroundColor=none;rounded=1;fillColor=#182E3E;strokeColor=#FFFFFF;fontColor=#FFFFFF;" vertex="1" parent="1">
          <mxGeometry x="754" y="2923" width="223" height="73.2" as="geometry" />
        </mxCell>
        <mxCell id="h0L3zIeI5D8LHyn1ZvPP-196" value="message" style="text;align=left;verticalAlign=top;spacingLeft=4;spacingRight=4;overflow=hidden;rotatable=0;points=[[0,0.5],[1,0.5]];portConstraint=eastwest;labelBackgroundColor=none;rounded=1;fontColor=#FFFFFF;" vertex="1" parent="h0L3zIeI5D8LHyn1ZvPP-195">
          <mxGeometry y="29.2" width="223" height="29" as="geometry" />
        </mxCell>
        <mxCell id="h0L3zIeI5D8LHyn1ZvPP-197" style="line;strokeWidth=1;align=left;verticalAlign=middle;spacingTop=-1;spacingLeft=3;spacingRight=3;rotatable=0;labelPosition=right;points=[];portConstraint=eastwest;labelBackgroundColor=none;rounded=1;fillColor=#182E3E;strokeColor=#FFFFFF;fontColor=#FFFFFF;" vertex="1" parent="h0L3zIeI5D8LHyn1ZvPP-195">
          <mxGeometry y="58.2" width="223" height="15" as="geometry" />
        </mxCell>
        <mxCell id="h0L3zIeI5D8LHyn1ZvPP-198" value="PackageManagerSaveError" style="swimlane;fontStyle=1;align=center;verticalAlign=top;childLayout=stackLayout;horizontal=1;startSize=29.2;horizontalStack=0;resizeParent=1;resizeParentMax=0;resizeLast=0;collapsible=0;marginBottom=0;labelBackgroundColor=none;rounded=1;fillColor=#182E3E;strokeColor=#FFFFFF;fontColor=#FFFFFF;" vertex="1" parent="1">
          <mxGeometry x="1027" y="2923" width="222" height="73.2" as="geometry" />
        </mxCell>
        <mxCell id="h0L3zIeI5D8LHyn1ZvPP-199" value="message" style="text;align=left;verticalAlign=top;spacingLeft=4;spacingRight=4;overflow=hidden;rotatable=0;points=[[0,0.5],[1,0.5]];portConstraint=eastwest;labelBackgroundColor=none;rounded=1;fontColor=#FFFFFF;" vertex="1" parent="h0L3zIeI5D8LHyn1ZvPP-198">
          <mxGeometry y="29.2" width="222" height="29" as="geometry" />
        </mxCell>
        <mxCell id="h0L3zIeI5D8LHyn1ZvPP-200" style="line;strokeWidth=1;align=left;verticalAlign=middle;spacingTop=-1;spacingLeft=3;spacingRight=3;rotatable=0;labelPosition=right;points=[];portConstraint=eastwest;labelBackgroundColor=none;rounded=1;fillColor=#182E3E;strokeColor=#FFFFFF;fontColor=#FFFFFF;" vertex="1" parent="h0L3zIeI5D8LHyn1ZvPP-198">
          <mxGeometry y="58.2" width="222" height="15" as="geometry" />
        </mxCell>
        <mxCell id="h0L3zIeI5D8LHyn1ZvPP-201" value="ConfigFileNotFound" style="swimlane;fontStyle=1;align=center;verticalAlign=top;childLayout=stackLayout;horizontal=1;startSize=25;horizontalStack=0;resizeParent=1;resizeParentMax=0;resizeLast=0;collapsible=0;marginBottom=0;labelBackgroundColor=none;rounded=1;fillColor=#182E3E;strokeColor=#FFFFFF;fontColor=#FFFFFF;" vertex="1" parent="1">
          <mxGeometry x="1283" y="1979" width="169" height="38" as="geometry" />
        </mxCell>
        <mxCell id="h0L3zIeI5D8LHyn1ZvPP-202" style="line;strokeWidth=1;align=left;verticalAlign=middle;spacingTop=-1;spacingLeft=3;spacingRight=3;rotatable=0;labelPosition=right;points=[];portConstraint=eastwest;labelBackgroundColor=none;rounded=1;fillColor=#182E3E;strokeColor=#FFFFFF;fontColor=#FFFFFF;" vertex="1" parent="h0L3zIeI5D8LHyn1ZvPP-201">
          <mxGeometry y="25" width="169" height="13" as="geometry" />
        </mxCell>
        <mxCell id="h0L3zIeI5D8LHyn1ZvPP-203" value="ConfigKeyNotFound" style="swimlane;fontStyle=1;align=center;verticalAlign=top;childLayout=stackLayout;horizontal=1;startSize=25;horizontalStack=0;resizeParent=1;resizeParentMax=0;resizeLast=0;collapsible=0;marginBottom=0;labelBackgroundColor=none;rounded=1;fillColor=#182E3E;strokeColor=#FFFFFF;fontColor=#FFFFFF;" vertex="1" parent="1">
          <mxGeometry x="1502" y="1979" width="170" height="38" as="geometry" />
        </mxCell>
        <mxCell id="h0L3zIeI5D8LHyn1ZvPP-204" style="line;strokeWidth=1;align=left;verticalAlign=middle;spacingTop=-1;spacingLeft=3;spacingRight=3;rotatable=0;labelPosition=right;points=[];portConstraint=eastwest;labelBackgroundColor=none;rounded=1;fillColor=#182E3E;strokeColor=#FFFFFF;fontColor=#FFFFFF;" vertex="1" parent="h0L3zIeI5D8LHyn1ZvPP-203">
          <mxGeometry y="25" width="170" height="13" as="geometry" />
        </mxCell>
        <mxCell id="h0L3zIeI5D8LHyn1ZvPP-205" value="Configuration" style="swimlane;fontStyle=1;align=center;verticalAlign=top;childLayout=stackLayout;horizontal=1;startSize=29.2;horizontalStack=0;resizeParent=1;resizeParentMax=0;resizeLast=0;collapsible=0;marginBottom=0;labelBackgroundColor=none;rounded=1;fillColor=#182E3E;strokeColor=#FFFFFF;fontColor=#FFFFFF;" vertex="1" parent="1">
          <mxGeometry x="1718" y="1979" width="219" height="66.2" as="geometry" />
        </mxCell>
        <mxCell id="h0L3zIeI5D8LHyn1ZvPP-206" style="line;strokeWidth=1;align=left;verticalAlign=middle;spacingTop=-1;spacingLeft=3;spacingRight=3;rotatable=0;labelPosition=right;points=[];portConstraint=eastwest;labelBackgroundColor=none;rounded=1;fillColor=#182E3E;strokeColor=#FFFFFF;fontColor=#FFFFFF;" vertex="1" parent="h0L3zIeI5D8LHyn1ZvPP-205">
          <mxGeometry y="29.2" width="219" height="8" as="geometry" />
        </mxCell>
        <mxCell id="h0L3zIeI5D8LHyn1ZvPP-207" value="get_key(section: str, key: str)" style="text;align=left;verticalAlign=top;spacingLeft=4;spacingRight=4;overflow=hidden;rotatable=0;points=[[0,0.5],[1,0.5]];portConstraint=eastwest;labelBackgroundColor=none;rounded=1;fontColor=#FFFFFF;" vertex="1" parent="h0L3zIeI5D8LHyn1ZvPP-205">
          <mxGeometry y="37.2" width="219" height="29" as="geometry" />
        </mxCell>
        <mxCell id="h0L3zIeI5D8LHyn1ZvPP-208" value="ConsoleLogFormatter" style="swimlane;fontStyle=1;align=center;verticalAlign=top;childLayout=stackLayout;horizontal=1;startSize=29.2;horizontalStack=0;resizeParent=1;resizeParentMax=0;resizeLast=0;collapsible=0;marginBottom=0;labelBackgroundColor=none;rounded=1;fillColor=#182E3E;strokeColor=#FFFFFF;fontColor=#FFFFFF;" vertex="1" parent="1">
          <mxGeometry x="1289" y="1864" width="291" height="66.2" as="geometry" />
        </mxCell>
        <mxCell id="h0L3zIeI5D8LHyn1ZvPP-209" style="line;strokeWidth=1;align=left;verticalAlign=middle;spacingTop=-1;spacingLeft=3;spacingRight=3;rotatable=0;labelPosition=right;points=[];portConstraint=eastwest;labelBackgroundColor=none;rounded=1;fillColor=#182E3E;strokeColor=#FFFFFF;fontColor=#FFFFFF;" vertex="1" parent="h0L3zIeI5D8LHyn1ZvPP-208">
          <mxGeometry y="29.2" width="291" height="8" as="geometry" />
        </mxCell>
        <mxCell id="h0L3zIeI5D8LHyn1ZvPP-210" value="format(record: logging.LogRecord) str" style="text;align=left;verticalAlign=top;spacingLeft=4;spacingRight=4;overflow=hidden;rotatable=0;points=[[0,0.5],[1,0.5]];portConstraint=eastwest;labelBackgroundColor=none;rounded=1;fontColor=#FFFFFF;" vertex="1" parent="h0L3zIeI5D8LHyn1ZvPP-208">
          <mxGeometry y="37.2" width="291" height="29" as="geometry" />
        </mxCell>
        <mxCell id="h0L3zIeI5D8LHyn1ZvPP-211" value="FileLogFormatter" style="swimlane;fontStyle=1;align=center;verticalAlign=top;childLayout=stackLayout;horizontal=1;startSize=29.2;horizontalStack=0;resizeParent=1;resizeParentMax=0;resizeLast=0;collapsible=0;marginBottom=0;labelBackgroundColor=none;rounded=1;fillColor=#182E3E;strokeColor=#FFFFFF;fontColor=#FFFFFF;" vertex="1" parent="1">
          <mxGeometry x="1630" y="1864" width="291" height="66.2" as="geometry" />
        </mxCell>
        <mxCell id="h0L3zIeI5D8LHyn1ZvPP-212" style="line;strokeWidth=1;align=left;verticalAlign=middle;spacingTop=-1;spacingLeft=3;spacingRight=3;rotatable=0;labelPosition=right;points=[];portConstraint=eastwest;labelBackgroundColor=none;rounded=1;fillColor=#182E3E;strokeColor=#FFFFFF;fontColor=#FFFFFF;" vertex="1" parent="h0L3zIeI5D8LHyn1ZvPP-211">
          <mxGeometry y="29.2" width="291" height="8" as="geometry" />
        </mxCell>
        <mxCell id="h0L3zIeI5D8LHyn1ZvPP-213" value="format(record: logging.LogRecord) str" style="text;align=left;verticalAlign=top;spacingLeft=4;spacingRight=4;overflow=hidden;rotatable=0;points=[[0,0.5],[1,0.5]];portConstraint=eastwest;labelBackgroundColor=none;rounded=1;fontColor=#FFFFFF;" vertex="1" parent="h0L3zIeI5D8LHyn1ZvPP-211">
          <mxGeometry y="37.2" width="291" height="29" as="geometry" />
        </mxCell>
        <mxCell id="h0L3zIeI5D8LHyn1ZvPP-214" value="MyLogger" style="swimlane;fontStyle=1;align=center;verticalAlign=top;childLayout=stackLayout;horizontal=1;startSize=25.384615384615383;horizontalStack=0;resizeParent=1;resizeParentMax=0;resizeLast=0;collapsible=0;marginBottom=0;labelBackgroundColor=none;rounded=1;fillColor=#182E3E;strokeColor=#FFFFFF;fontColor=#FFFFFF;" vertex="1" parent="1">
          <mxGeometry x="1363" y="1678" width="500" height="158.3846153846154" as="geometry" />
        </mxCell>
        <mxCell id="h0L3zIeI5D8LHyn1ZvPP-215" style="line;strokeWidth=1;align=left;verticalAlign=middle;spacingTop=-1;spacingLeft=3;spacingRight=3;rotatable=0;labelPosition=right;points=[];portConstraint=eastwest;labelBackgroundColor=none;rounded=1;fillColor=#182E3E;strokeColor=#FFFFFF;fontColor=#FFFFFF;" vertex="1" parent="h0L3zIeI5D8LHyn1ZvPP-214">
          <mxGeometry y="25.384615384615383" width="500" height="8" as="geometry" />
        </mxCell>
        <mxCell id="h0L3zIeI5D8LHyn1ZvPP-216" value="configure(config_key: str) logging.Logger" style="text;align=left;verticalAlign=top;spacingLeft=4;spacingRight=4;overflow=hidden;rotatable=0;points=[[0,0.5],[1,0.5]];portConstraint=eastwest;labelBackgroundColor=none;rounded=1;fontColor=#FFFFFF;" vertex="1" parent="h0L3zIeI5D8LHyn1ZvPP-214">
          <mxGeometry y="33.38461538461539" width="500" height="25" as="geometry" />
        </mxCell>
        <mxCell id="h0L3zIeI5D8LHyn1ZvPP-217" value="configure_level(logger_name: str, handler_type: str, level: str) None" style="text;align=left;verticalAlign=top;spacingLeft=4;spacingRight=4;overflow=hidden;rotatable=0;points=[[0,0.5],[1,0.5]];portConstraint=eastwest;labelBackgroundColor=none;rounded=1;fontColor=#FFFFFF;" vertex="1" parent="h0L3zIeI5D8LHyn1ZvPP-214">
          <mxGeometry y="58.38461538461539" width="500" height="25" as="geometry" />
        </mxCell>
        <mxCell id="h0L3zIeI5D8LHyn1ZvPP-218" value="enable_console(logger_name: str, console_level: str) None" style="text;align=left;verticalAlign=top;spacingLeft=4;spacingRight=4;overflow=hidden;rotatable=0;points=[[0,0.5],[1,0.5]];portConstraint=eastwest;labelBackgroundColor=none;rounded=1;fontColor=#FFFFFF;" vertex="1" parent="h0L3zIeI5D8LHyn1ZvPP-214">
          <mxGeometry y="83.38461538461539" width="500" height="25" as="geometry" />
        </mxCell>
        <mxCell id="h0L3zIeI5D8LHyn1ZvPP-219" value="enable_file(logger_name: str, log_file: str, log_file_level: str) None" style="text;align=left;verticalAlign=top;spacingLeft=4;spacingRight=4;overflow=hidden;rotatable=0;points=[[0,0.5],[1,0.5]];portConstraint=eastwest;labelBackgroundColor=none;rounded=1;fontColor=#FFFFFF;" vertex="1" parent="h0L3zIeI5D8LHyn1ZvPP-214">
          <mxGeometry y="108.38461538461539" width="500" height="25" as="geometry" />
        </mxCell>
        <mxCell id="h0L3zIeI5D8LHyn1ZvPP-220" value="get_logger(logger_name: Optional[str]) logging.Logger" style="text;align=left;verticalAlign=top;spacingLeft=4;spacingRight=4;overflow=hidden;rotatable=0;points=[[0,0.5],[1,0.5]];portConstraint=eastwest;labelBackgroundColor=none;rounded=1;fontColor=#FFFFFF;" vertex="1" parent="h0L3zIeI5D8LHyn1ZvPP-214">
          <mxGeometry y="133.3846153846154" width="500" height="25" as="geometry" />
        </mxCell>
        <mxCell id="h0L3zIeI5D8LHyn1ZvPP-221" value="OliviaFinderException" style="swimlane;fontStyle=1;align=center;verticalAlign=top;childLayout=stackLayout;horizontal=1;startSize=29.2;horizontalStack=0;resizeParent=1;resizeParentMax=0;resizeLast=0;collapsible=0;marginBottom=0;labelBackgroundColor=none;rounded=1;fillColor=#182E3E;strokeColor=#FFFFFF;fontColor=#FFFFFF;" vertex="1" parent="1">
          <mxGeometry x="1385" y="2144" width="184" height="73.2" as="geometry" />
        </mxCell>
        <mxCell id="h0L3zIeI5D8LHyn1ZvPP-222" value="message : str" style="text;align=left;verticalAlign=top;spacingLeft=4;spacingRight=4;overflow=hidden;rotatable=0;points=[[0,0.5],[1,0.5]];portConstraint=eastwest;labelBackgroundColor=none;rounded=1;fontColor=#FFFFFF;" vertex="1" parent="h0L3zIeI5D8LHyn1ZvPP-221">
          <mxGeometry y="29.2" width="184" height="29" as="geometry" />
        </mxCell>
        <mxCell id="h0L3zIeI5D8LHyn1ZvPP-223" style="line;strokeWidth=1;align=left;verticalAlign=middle;spacingTop=-1;spacingLeft=3;spacingRight=3;rotatable=0;labelPosition=right;points=[];portConstraint=eastwest;labelBackgroundColor=none;rounded=1;fillColor=#182E3E;strokeColor=#FFFFFF;fontColor=#FFFFFF;" vertex="1" parent="h0L3zIeI5D8LHyn1ZvPP-221">
          <mxGeometry y="58.2" width="184" height="15" as="geometry" />
        </mxCell>
        <mxCell id="h0L3zIeI5D8LHyn1ZvPP-224" value="_SingletonWrapper" style="swimlane;fontStyle=1;align=center;verticalAlign=top;childLayout=stackLayout;horizontal=1;startSize=25;horizontalStack=0;resizeParent=1;resizeParentMax=0;resizeLast=0;collapsible=0;marginBottom=0;labelBackgroundColor=none;rounded=1;fillColor=#182E3E;strokeColor=#FFFFFF;fontColor=#FFFFFF;" vertex="1" parent="1">
          <mxGeometry x="1727" y="2086.6" width="161" height="38" as="geometry" />
        </mxCell>
        <mxCell id="h0L3zIeI5D8LHyn1ZvPP-225" style="line;strokeWidth=1;align=left;verticalAlign=middle;spacingTop=-1;spacingLeft=3;spacingRight=3;rotatable=0;labelPosition=right;points=[];portConstraint=eastwest;labelBackgroundColor=none;rounded=1;fillColor=#182E3E;strokeColor=#FFFFFF;fontColor=#FFFFFF;" vertex="1" parent="h0L3zIeI5D8LHyn1ZvPP-224">
          <mxGeometry y="25" width="161" height="13" as="geometry" />
        </mxCell>
        <mxCell id="h0L3zIeI5D8LHyn1ZvPP-226" value="" style="curved=1;startArrow=none;endArrow=block;endSize=16;endFill=0;exitX=0.49906311938043174;exitY=0.9913793103448276;entryX=0.13176789427768978;entryY=0;rounded=1;labelBackgroundColor=none;fontColor=default;strokeColor=#23445D;" edge="1" parent="1" source="h0L3zIeI5D8LHyn1ZvPP-201" target="h0L3zIeI5D8LHyn1ZvPP-221">
          <mxGeometry relative="1" as="geometry">
            <Array as="points">
              <mxPoint x="1367" y="2119" />
            </Array>
          </mxGeometry>
        </mxCell>
        <mxCell id="h0L3zIeI5D8LHyn1ZvPP-227" value="" style="curved=1;startArrow=none;endArrow=block;endSize=16;endFill=0;exitX=0.4995097889619715;exitY=0.9913793103448276;entryX=0.8696360801724632;entryY=0;rounded=1;labelBackgroundColor=none;fontColor=default;strokeColor=#23445D;" edge="1" parent="1" source="h0L3zIeI5D8LHyn1ZvPP-203" target="h0L3zIeI5D8LHyn1ZvPP-221">
          <mxGeometry relative="1" as="geometry">
            <Array as="points">
              <mxPoint x="1587" y="2119" />
            </Array>
          </mxGeometry>
        </mxCell>
        <mxCell id="h0L3zIeI5D8LHyn1ZvPP-229" value="data_source" style="swimlane;fontStyle=1;align=center;verticalAlign=top;childLayout=stackLayout;horizontal=1;startSize=25;horizontalStack=0;resizeParent=1;resizeParentMax=0;resizeLast=0;collapsible=0;marginBottom=0;labelBackgroundColor=none;rounded=1;fillColor=#182E3E;strokeColor=#FFFFFF;fontColor=#FFFFFF;" vertex="1" parent="1">
          <mxGeometry x="1029" y="3376" width="109" height="38" as="geometry" />
        </mxCell>
        <mxCell id="h0L3zIeI5D8LHyn1ZvPP-230" style="line;strokeWidth=1;align=left;verticalAlign=middle;spacingTop=-1;spacingLeft=3;spacingRight=3;rotatable=0;labelPosition=right;points=[];portConstraint=eastwest;labelBackgroundColor=none;rounded=1;fillColor=#182E3E;strokeColor=#FFFFFF;fontColor=#FFFFFF;" vertex="1" parent="h0L3zIeI5D8LHyn1ZvPP-229">
          <mxGeometry y="25" width="109" height="13" as="geometry" />
        </mxCell>
        <mxCell id="h0L3zIeI5D8LHyn1ZvPP-231" value="csv_ds" style="swimlane;fontStyle=1;align=center;verticalAlign=top;childLayout=stackLayout;horizontal=1;startSize=25;horizontalStack=0;resizeParent=1;resizeParentMax=0;resizeLast=0;collapsible=0;marginBottom=0;labelBackgroundColor=none;rounded=1;fillColor=#182E3E;strokeColor=#FFFFFF;fontColor=#FFFFFF;" vertex="1" parent="1">
          <mxGeometry x="905" y="3268" width="69" height="38" as="geometry" />
        </mxCell>
        <mxCell id="h0L3zIeI5D8LHyn1ZvPP-232" style="line;strokeWidth=1;align=left;verticalAlign=middle;spacingTop=-1;spacingLeft=3;spacingRight=3;rotatable=0;labelPosition=right;points=[];portConstraint=eastwest;labelBackgroundColor=none;rounded=1;fillColor=#182E3E;strokeColor=#FFFFFF;fontColor=#FFFFFF;" vertex="1" parent="h0L3zIeI5D8LHyn1ZvPP-231">
          <mxGeometry y="25" width="69" height="13" as="geometry" />
        </mxCell>
        <mxCell id="h0L3zIeI5D8LHyn1ZvPP-233" value="librariesio_ds" style="swimlane;fontStyle=1;align=center;verticalAlign=top;childLayout=stackLayout;horizontal=1;startSize=25;horizontalStack=0;resizeParent=1;resizeParentMax=0;resizeLast=0;collapsible=0;marginBottom=0;labelBackgroundColor=none;rounded=1;fillColor=#182E3E;strokeColor=#FFFFFF;fontColor=#FFFFFF;" vertex="1" parent="1">
          <mxGeometry x="1024" y="3283" width="119" height="38" as="geometry" />
        </mxCell>
        <mxCell id="h0L3zIeI5D8LHyn1ZvPP-234" style="line;strokeWidth=1;align=left;verticalAlign=middle;spacingTop=-1;spacingLeft=3;spacingRight=3;rotatable=0;labelPosition=right;points=[];portConstraint=eastwest;labelBackgroundColor=none;rounded=1;fillColor=#182E3E;strokeColor=#FFFFFF;fontColor=#FFFFFF;" vertex="1" parent="h0L3zIeI5D8LHyn1ZvPP-233">
          <mxGeometry y="25" width="119" height="13" as="geometry" />
        </mxCell>
        <mxCell id="h0L3zIeI5D8LHyn1ZvPP-237" value="bioconductor" style="swimlane;fontStyle=1;align=center;verticalAlign=top;childLayout=stackLayout;horizontal=1;startSize=25;horizontalStack=0;resizeParent=1;resizeParentMax=0;resizeLast=0;collapsible=0;marginBottom=0;labelBackgroundColor=none;rounded=1;fillColor=#182E3E;strokeColor=#FFFFFF;fontColor=#FFFFFF;" vertex="1" parent="1">
          <mxGeometry x="1070" y="3163" width="117" height="38" as="geometry" />
        </mxCell>
        <mxCell id="h0L3zIeI5D8LHyn1ZvPP-238" style="line;strokeWidth=1;align=left;verticalAlign=middle;spacingTop=-1;spacingLeft=3;spacingRight=3;rotatable=0;labelPosition=right;points=[];portConstraint=eastwest;labelBackgroundColor=none;rounded=1;fillColor=#182E3E;strokeColor=#FFFFFF;fontColor=#FFFFFF;" vertex="1" parent="h0L3zIeI5D8LHyn1ZvPP-237">
          <mxGeometry y="25" width="117" height="13" as="geometry" />
        </mxCell>
        <mxCell id="h0L3zIeI5D8LHyn1ZvPP-239" value="cran" style="swimlane;fontStyle=1;align=center;verticalAlign=top;childLayout=stackLayout;horizontal=1;startSize=25;horizontalStack=0;resizeParent=1;resizeParentMax=0;resizeLast=0;collapsible=0;marginBottom=0;labelBackgroundColor=none;rounded=1;fillColor=#182E3E;strokeColor=#FFFFFF;fontColor=#FFFFFF;" vertex="1" parent="1">
          <mxGeometry x="988" y="3163" width="49" height="38" as="geometry" />
        </mxCell>
        <mxCell id="h0L3zIeI5D8LHyn1ZvPP-240" style="line;strokeWidth=1;align=left;verticalAlign=middle;spacingTop=-1;spacingLeft=3;spacingRight=3;rotatable=0;labelPosition=right;points=[];portConstraint=eastwest;labelBackgroundColor=none;rounded=1;fillColor=#182E3E;strokeColor=#FFFFFF;fontColor=#FFFFFF;" vertex="1" parent="h0L3zIeI5D8LHyn1ZvPP-239">
          <mxGeometry y="25" width="49" height="13" as="geometry" />
        </mxCell>
        <mxCell id="h0L3zIeI5D8LHyn1ZvPP-241" value="github" style="swimlane;fontStyle=1;align=center;verticalAlign=top;childLayout=stackLayout;horizontal=1;startSize=25;horizontalStack=0;resizeParent=1;resizeParentMax=0;resizeLast=0;collapsible=0;marginBottom=0;labelBackgroundColor=none;rounded=1;fillColor=#182E3E;strokeColor=#FFFFFF;fontColor=#FFFFFF;" vertex="1" parent="1">
          <mxGeometry x="1212" y="3160" width="64" height="38" as="geometry" />
        </mxCell>
        <mxCell id="h0L3zIeI5D8LHyn1ZvPP-242" style="line;strokeWidth=1;align=left;verticalAlign=middle;spacingTop=-1;spacingLeft=3;spacingRight=3;rotatable=0;labelPosition=right;points=[];portConstraint=eastwest;labelBackgroundColor=none;rounded=1;fillColor=#182E3E;strokeColor=#FFFFFF;fontColor=#FFFFFF;" vertex="1" parent="h0L3zIeI5D8LHyn1ZvPP-241">
          <mxGeometry y="25" width="64" height="13" as="geometry" />
        </mxCell>
        <mxCell id="h0L3zIeI5D8LHyn1ZvPP-243" value="npm" style="swimlane;fontStyle=1;align=center;verticalAlign=top;childLayout=stackLayout;horizontal=1;startSize=25;horizontalStack=0;resizeParent=1;resizeParentMax=0;resizeLast=0;collapsible=0;marginBottom=0;labelBackgroundColor=none;rounded=1;fillColor=#182E3E;strokeColor=#FFFFFF;fontColor=#FFFFFF;" vertex="1" parent="1">
          <mxGeometry x="1326" y="3160" width="49" height="38" as="geometry" />
        </mxCell>
        <mxCell id="h0L3zIeI5D8LHyn1ZvPP-244" style="line;strokeWidth=1;align=left;verticalAlign=middle;spacingTop=-1;spacingLeft=3;spacingRight=3;rotatable=0;labelPosition=right;points=[];portConstraint=eastwest;labelBackgroundColor=none;rounded=1;fillColor=#182E3E;strokeColor=#FFFFFF;fontColor=#FFFFFF;" vertex="1" parent="h0L3zIeI5D8LHyn1ZvPP-243">
          <mxGeometry y="25" width="49" height="13" as="geometry" />
        </mxCell>
        <mxCell id="h0L3zIeI5D8LHyn1ZvPP-245" value="pypi" style="swimlane;fontStyle=1;align=center;verticalAlign=top;childLayout=stackLayout;horizontal=1;startSize=25;horizontalStack=0;resizeParent=1;resizeParentMax=0;resizeLast=0;collapsible=0;marginBottom=0;labelBackgroundColor=none;rounded=1;fillColor=#182E3E;strokeColor=#FFFFFF;fontColor=#FFFFFF;" vertex="1" parent="1">
          <mxGeometry x="1424" y="3160" width="48" height="38" as="geometry" />
        </mxCell>
        <mxCell id="h0L3zIeI5D8LHyn1ZvPP-246" style="line;strokeWidth=1;align=left;verticalAlign=middle;spacingTop=-1;spacingLeft=3;spacingRight=3;rotatable=0;labelPosition=right;points=[];portConstraint=eastwest;labelBackgroundColor=none;rounded=1;fillColor=#182E3E;strokeColor=#FFFFFF;fontColor=#FFFFFF;" vertex="1" parent="h0L3zIeI5D8LHyn1ZvPP-245">
          <mxGeometry y="25" width="48" height="13" as="geometry" />
        </mxCell>
        <mxCell id="h0L3zIeI5D8LHyn1ZvPP-247" value="scraper_ds" style="swimlane;fontStyle=1;align=center;verticalAlign=top;childLayout=stackLayout;horizontal=1;startSize=25;horizontalStack=0;resizeParent=1;resizeParentMax=0;resizeLast=0;collapsible=0;marginBottom=0;labelBackgroundColor=none;rounded=1;fillColor=#182E3E;strokeColor=#FFFFFF;fontColor=#FFFFFF;" vertex="1" parent="1">
          <mxGeometry x="1194" y="3268" width="100" height="38" as="geometry" />
        </mxCell>
        <mxCell id="h0L3zIeI5D8LHyn1ZvPP-248" style="line;strokeWidth=1;align=left;verticalAlign=middle;spacingTop=-1;spacingLeft=3;spacingRight=3;rotatable=0;labelPosition=right;points=[];portConstraint=eastwest;labelBackgroundColor=none;rounded=1;fillColor=#182E3E;strokeColor=#FFFFFF;fontColor=#FFFFFF;" vertex="1" parent="h0L3zIeI5D8LHyn1ZvPP-247">
          <mxGeometry y="25" width="100" height="13" as="geometry" />
        </mxCell>
        <mxCell id="h0L3zIeI5D8LHyn1ZvPP-249" value="" style="curved=1;startArrow=none;endArrow=open;endSize=12;exitX=0.5056763248167176;exitY=1;entryX=0.003899040572140195;entryY=0.147175585229514;rounded=1;labelBackgroundColor=none;fontColor=default;strokeColor=#23445D;" edge="1" parent="1" source="h0L3zIeI5D8LHyn1ZvPP-231" target="h0L3zIeI5D8LHyn1ZvPP-229">
          <mxGeometry relative="1" as="geometry">
            <Array as="points">
              <mxPoint x="940" y="3351" />
            </Array>
          </mxGeometry>
        </mxCell>
        <mxCell id="h0L3zIeI5D8LHyn1ZvPP-250" value="" style="curved=1;startArrow=none;endArrow=open;endSize=12;exitX=0.49628849189822416;exitY=1;entryX=0.5051222984943915;entryY=0;rounded=1;labelBackgroundColor=none;fontColor=default;strokeColor=#23445D;" edge="1" parent="1" source="h0L3zIeI5D8LHyn1ZvPP-233" target="h0L3zIeI5D8LHyn1ZvPP-229">
          <mxGeometry relative="1" as="geometry">
            <Array as="points" />
          </mxGeometry>
        </mxCell>
        <mxCell id="h0L3zIeI5D8LHyn1ZvPP-251" value="" style="curved=1;startArrow=none;endArrow=open;endSize=12;exitX=0.49791664123535156;exitY=1;entryX=1.0063455564166428;entryY=0.1815597736781137;rounded=1;labelBackgroundColor=none;fontColor=default;strokeColor=#23445D;" edge="1" parent="1" source="h0L3zIeI5D8LHyn1ZvPP-247" target="h0L3zIeI5D8LHyn1ZvPP-229">
          <mxGeometry relative="1" as="geometry">
            <Array as="points">
              <mxPoint x="1244" y="3351" />
            </Array>
          </mxGeometry>
        </mxCell>
        <mxCell id="h0L3zIeI5D8LHyn1ZvPP-252" value="" style="curved=1;startArrow=none;endArrow=open;endSize=12;exitX=0.49557818198690606;exitY=1;entryX=-0.004083366394042969;entryY=0.32911697352353214;rounded=1;labelBackgroundColor=none;fontColor=default;strokeColor=#23445D;" edge="1" parent="1" source="h0L3zIeI5D8LHyn1ZvPP-239" target="h0L3zIeI5D8LHyn1ZvPP-247">
          <mxGeometry relative="1" as="geometry">
            <Array as="points">
              <mxPoint x="1077" y="3274" />
            </Array>
          </mxGeometry>
        </mxCell>
        <mxCell id="h0L3zIeI5D8LHyn1ZvPP-253" value="" style="curved=1;startArrow=none;endArrow=open;endSize=12;exitX=0.498076903514373;exitY=1;entryX=0.25;entryY=0;rounded=1;entryDx=0;entryDy=0;labelBackgroundColor=none;fontColor=default;strokeColor=#23445D;" edge="1" parent="1" source="h0L3zIeI5D8LHyn1ZvPP-237" target="h0L3zIeI5D8LHyn1ZvPP-247">
          <mxGeometry relative="1" as="geometry">
            <Array as="points">
              <mxPoint x="1135" y="3233" />
              <mxPoint x="1187" y="3233" />
            </Array>
          </mxGeometry>
        </mxCell>
        <mxCell id="h0L3zIeI5D8LHyn1ZvPP-254" value="" style="curved=1;startArrow=none;endArrow=open;endSize=12;exitX=0.4967447519302368;exitY=1;entryX=0.49791664123535156;entryY=0;rounded=1;labelBackgroundColor=none;fontColor=default;strokeColor=#23445D;" edge="1" parent="1" source="h0L3zIeI5D8LHyn1ZvPP-241" target="h0L3zIeI5D8LHyn1ZvPP-247">
          <mxGeometry relative="1" as="geometry">
            <Array as="points" />
          </mxGeometry>
        </mxCell>
        <mxCell id="h0L3zIeI5D8LHyn1ZvPP-255" value="" style="curved=1;startArrow=none;endArrow=open;endSize=12;exitX=0.4918366646280094;exitY=1;entryX=0.9999166488647461;entryY=0.06035495364616752;rounded=1;labelBackgroundColor=none;fontColor=default;strokeColor=#23445D;" edge="1" parent="1" source="h0L3zIeI5D8LHyn1ZvPP-243" target="h0L3zIeI5D8LHyn1ZvPP-247">
          <mxGeometry relative="1" as="geometry">
            <Array as="points">
              <mxPoint x="1350" y="3243" />
            </Array>
          </mxGeometry>
        </mxCell>
        <mxCell id="h0L3zIeI5D8LHyn1ZvPP-256" value="" style="curved=1;startArrow=none;endArrow=open;endSize=12;exitX=0.5088541110356649;exitY=1;entryX=0.9999166488647461;entryY=0.2716015713934776;rounded=1;labelBackgroundColor=none;fontColor=default;strokeColor=#23445D;" edge="1" parent="1" source="h0L3zIeI5D8LHyn1ZvPP-245" target="h0L3zIeI5D8LHyn1ZvPP-247">
          <mxGeometry relative="1" as="geometry">
            <Array as="points">
              <mxPoint x="1448" y="3243" />
            </Array>
          </mxGeometry>
        </mxCell>
        <mxCell id="h0L3zIeI5D8LHyn1ZvPP-259" value="job" style="swimlane;fontStyle=1;align=center;verticalAlign=top;childLayout=stackLayout;horizontal=1;startSize=25;horizontalStack=0;resizeParent=1;resizeParentMax=0;resizeLast=0;collapsible=0;marginBottom=0;labelBackgroundColor=none;fillColor=#182E3E;strokeColor=#FFFFFF;fontColor=#FFFFFF;" vertex="1" parent="1">
          <mxGeometry x="1687" y="2654" width="39" height="38" as="geometry" />
        </mxCell>
        <mxCell id="h0L3zIeI5D8LHyn1ZvPP-260" style="line;strokeWidth=1;fillColor=none;align=left;verticalAlign=middle;spacingTop=-1;spacingLeft=3;spacingRight=3;rotatable=0;labelPosition=right;points=[];portConstraint=eastwest;strokeColor=#FFFFFF;labelBackgroundColor=none;fontColor=#FFFFFF;" vertex="1" parent="h0L3zIeI5D8LHyn1ZvPP-259">
          <mxGeometry y="25" width="39" height="13" as="geometry" />
        </mxCell>
        <mxCell id="h0L3zIeI5D8LHyn1ZvPP-263" value="list_builder" style="swimlane;fontStyle=1;align=center;verticalAlign=top;childLayout=stackLayout;horizontal=1;startSize=25;horizontalStack=0;resizeParent=1;resizeParentMax=0;resizeLast=0;collapsible=0;marginBottom=0;labelBackgroundColor=none;fillColor=#182E3E;strokeColor=#FFFFFF;fontColor=#FFFFFF;" vertex="1" parent="1">
          <mxGeometry x="1637" y="2762" width="100" height="38" as="geometry" />
        </mxCell>
        <mxCell id="h0L3zIeI5D8LHyn1ZvPP-264" style="line;strokeWidth=1;fillColor=none;align=left;verticalAlign=middle;spacingTop=-1;spacingLeft=3;spacingRight=3;rotatable=0;labelPosition=right;points=[];portConstraint=eastwest;strokeColor=#FFFFFF;labelBackgroundColor=none;fontColor=#FFFFFF;" vertex="1" parent="h0L3zIeI5D8LHyn1ZvPP-263">
          <mxGeometry y="25" width="100" height="13" as="geometry" />
        </mxCell>
        <mxCell id="h0L3zIeI5D8LHyn1ZvPP-265" value="proxy_builder" style="swimlane;fontStyle=1;align=center;verticalAlign=top;childLayout=stackLayout;horizontal=1;startSize=25;horizontalStack=0;resizeParent=1;resizeParentMax=0;resizeLast=0;collapsible=0;marginBottom=0;labelBackgroundColor=none;fillColor=#182E3E;strokeColor=#FFFFFF;fontColor=#FFFFFF;" vertex="1" parent="1">
          <mxGeometry x="1746" y="2870" width="121" height="38" as="geometry" />
        </mxCell>
        <mxCell id="h0L3zIeI5D8LHyn1ZvPP-266" style="line;strokeWidth=1;fillColor=none;align=left;verticalAlign=middle;spacingTop=-1;spacingLeft=3;spacingRight=3;rotatable=0;labelPosition=right;points=[];portConstraint=eastwest;strokeColor=#FFFFFF;labelBackgroundColor=none;fontColor=#FFFFFF;" vertex="1" parent="h0L3zIeI5D8LHyn1ZvPP-265">
          <mxGeometry y="25" width="121" height="13" as="geometry" />
        </mxCell>
        <mxCell id="h0L3zIeI5D8LHyn1ZvPP-267" value="ssl_proxies" style="swimlane;fontStyle=1;align=center;verticalAlign=top;childLayout=stackLayout;horizontal=1;startSize=25;horizontalStack=0;resizeParent=1;resizeParentMax=0;resizeLast=0;collapsible=0;marginBottom=0;labelBackgroundColor=none;fillColor=#182E3E;strokeColor=#FFFFFF;fontColor=#FFFFFF;" vertex="1" parent="1">
          <mxGeometry x="1787" y="2762" width="103" height="38" as="geometry" />
        </mxCell>
        <mxCell id="h0L3zIeI5D8LHyn1ZvPP-268" style="line;strokeWidth=1;fillColor=none;align=left;verticalAlign=middle;spacingTop=-1;spacingLeft=3;spacingRight=3;rotatable=0;labelPosition=right;points=[];portConstraint=eastwest;strokeColor=#FFFFFF;labelBackgroundColor=none;fontColor=#FFFFFF;" vertex="1" parent="h0L3zIeI5D8LHyn1ZvPP-267">
          <mxGeometry y="25" width="103" height="13" as="geometry" />
        </mxCell>
        <mxCell id="h0L3zIeI5D8LHyn1ZvPP-269" value="proxy_handler" style="swimlane;fontStyle=1;align=center;verticalAlign=top;childLayout=stackLayout;horizontal=1;startSize=25;horizontalStack=0;resizeParent=1;resizeParentMax=0;resizeLast=0;collapsible=0;marginBottom=0;labelBackgroundColor=none;fillColor=#182E3E;strokeColor=#FFFFFF;fontColor=#FFFFFF;" vertex="1" parent="1">
          <mxGeometry x="1776" y="2654" width="125" height="38" as="geometry" />
        </mxCell>
        <mxCell id="h0L3zIeI5D8LHyn1ZvPP-270" style="line;strokeWidth=1;fillColor=none;align=left;verticalAlign=middle;spacingTop=-1;spacingLeft=3;spacingRight=3;rotatable=0;labelPosition=right;points=[];portConstraint=eastwest;strokeColor=#FFFFFF;labelBackgroundColor=none;fontColor=#FFFFFF;" vertex="1" parent="h0L3zIeI5D8LHyn1ZvPP-269">
          <mxGeometry y="25" width="125" height="13" as="geometry" />
        </mxCell>
        <mxCell id="h0L3zIeI5D8LHyn1ZvPP-271" value="request_handler" style="swimlane;fontStyle=1;align=center;verticalAlign=top;childLayout=stackLayout;horizontal=1;startSize=25;horizontalStack=0;resizeParent=1;resizeParentMax=0;resizeLast=0;collapsible=0;marginBottom=0;labelBackgroundColor=none;fillColor=#182E3E;strokeColor=#FFFFFF;fontColor=#FFFFFF;" vertex="1" parent="1">
          <mxGeometry x="1760" y="2438" width="139" height="38" as="geometry" />
        </mxCell>
        <mxCell id="h0L3zIeI5D8LHyn1ZvPP-272" style="line;strokeWidth=1;fillColor=none;align=left;verticalAlign=middle;spacingTop=-1;spacingLeft=3;spacingRight=3;rotatable=0;labelPosition=right;points=[];portConstraint=eastwest;strokeColor=#FFFFFF;labelBackgroundColor=none;fontColor=#FFFFFF;" vertex="1" parent="h0L3zIeI5D8LHyn1ZvPP-271">
          <mxGeometry y="25" width="139" height="13" as="geometry" />
        </mxCell>
        <mxCell id="h0L3zIeI5D8LHyn1ZvPP-273" value="request_worker" style="swimlane;fontStyle=1;align=center;verticalAlign=top;childLayout=stackLayout;horizontal=1;startSize=25;horizontalStack=0;resizeParent=1;resizeParentMax=0;resizeLast=0;collapsible=0;marginBottom=0;labelBackgroundColor=none;fillColor=#182E3E;strokeColor=#FFFFFF;fontColor=#FFFFFF;" vertex="1" parent="1">
          <mxGeometry x="1857" y="2546" width="134" height="38" as="geometry" />
        </mxCell>
        <mxCell id="h0L3zIeI5D8LHyn1ZvPP-274" style="line;strokeWidth=1;fillColor=none;align=left;verticalAlign=middle;spacingTop=-1;spacingLeft=3;spacingRight=3;rotatable=0;labelPosition=right;points=[];portConstraint=eastwest;strokeColor=#FFFFFF;labelBackgroundColor=none;fontColor=#FFFFFF;" vertex="1" parent="h0L3zIeI5D8LHyn1ZvPP-273">
          <mxGeometry y="25" width="134" height="13" as="geometry" />
        </mxCell>
        <mxCell id="h0L3zIeI5D8LHyn1ZvPP-275" value="useragent_handler" style="swimlane;fontStyle=1;align=center;verticalAlign=top;childLayout=stackLayout;horizontal=1;startSize=25;horizontalStack=0;resizeParent=1;resizeParentMax=0;resizeLast=0;collapsible=0;marginBottom=0;labelBackgroundColor=none;fillColor=#182E3E;strokeColor=#FFFFFF;fontColor=#FFFFFF;" vertex="1" parent="1">
          <mxGeometry x="1951" y="2654" width="158" height="38" as="geometry" />
        </mxCell>
        <mxCell id="h0L3zIeI5D8LHyn1ZvPP-276" style="line;strokeWidth=1;fillColor=none;align=left;verticalAlign=middle;spacingTop=-1;spacingLeft=3;spacingRight=3;rotatable=0;labelPosition=right;points=[];portConstraint=eastwest;strokeColor=#FFFFFF;labelBackgroundColor=none;fontColor=#FFFFFF;" vertex="1" parent="h0L3zIeI5D8LHyn1ZvPP-275">
          <mxGeometry y="25" width="158" height="13" as="geometry" />
        </mxCell>
        <mxCell id="h0L3zIeI5D8LHyn1ZvPP-277" value="" style="curved=1;startArrow=none;endArrow=open;endSize=12;exitX=0.49812500953674316;exitY=1;entryX=-0.003822318778550329;entryY=0.027937173731235644;rounded=0;labelBackgroundColor=none;strokeColor=#23445D;fontColor=default;" edge="1" parent="1" source="h0L3zIeI5D8LHyn1ZvPP-263" target="h0L3zIeI5D8LHyn1ZvPP-265">
          <mxGeometry relative="1" as="geometry">
            <Array as="points">
              <mxPoint x="1687" y="2845" />
            </Array>
          </mxGeometry>
        </mxCell>
        <mxCell id="h0L3zIeI5D8LHyn1ZvPP-278" value="" style="curved=1;startArrow=none;endArrow=open;endSize=12;exitX=0.500283185718129;exitY=1;entryX=0.6400035812032306;entryY=0;rounded=0;labelBackgroundColor=none;strokeColor=#23445D;fontColor=default;" edge="1" parent="1" source="h0L3zIeI5D8LHyn1ZvPP-267" target="h0L3zIeI5D8LHyn1ZvPP-265">
          <mxGeometry relative="1" as="geometry">
            <Array as="points">
              <mxPoint x="1839" y="2845" />
            </Array>
          </mxGeometry>
        </mxCell>
        <mxCell id="h0L3zIeI5D8LHyn1ZvPP-279" value="" style="curved=1;startArrow=none;endArrow=open;endSize=12;exitX=-0.0007666549682617187;exitY=0.8843086957307859;entryX=0.49812500953674316;entryY=0;rounded=0;labelBackgroundColor=none;strokeColor=#23445D;fontColor=default;" edge="1" parent="1" source="h0L3zIeI5D8LHyn1ZvPP-269" target="h0L3zIeI5D8LHyn1ZvPP-263">
          <mxGeometry relative="1" as="geometry">
            <Array as="points">
              <mxPoint x="1687" y="2737" />
            </Array>
          </mxGeometry>
        </mxCell>
        <mxCell id="h0L3zIeI5D8LHyn1ZvPP-280" value="" style="curved=1;startArrow=none;endArrow=open;endSize=12;exitX=0.8720061823527017;exitY=1;entryX=0.9945248138806051;entryY=0.027937173731235644;rounded=0;labelBackgroundColor=none;strokeColor=#23445D;fontColor=default;" edge="1" parent="1" source="h0L3zIeI5D8LHyn1ZvPP-269" target="h0L3zIeI5D8LHyn1ZvPP-265">
          <mxGeometry relative="1" as="geometry">
            <Array as="points">
              <mxPoint x="1925" y="2737" />
              <mxPoint x="1925" y="2845" />
            </Array>
          </mxGeometry>
        </mxCell>
        <mxCell id="h0L3zIeI5D8LHyn1ZvPP-281" value="" style="curved=1;startArrow=none;endArrow=open;endSize=12;exitX=0.5002333450317383;exitY=1;entryX=0.500283185718129;entryY=0;rounded=0;labelBackgroundColor=none;strokeColor=#23445D;fontColor=default;" edge="1" parent="1" source="h0L3zIeI5D8LHyn1ZvPP-269" target="h0L3zIeI5D8LHyn1ZvPP-267">
          <mxGeometry relative="1" as="geometry">
            <Array as="points" />
          </mxGeometry>
        </mxCell>
        <mxCell id="h0L3zIeI5D8LHyn1ZvPP-282" value="" style="curved=1;startArrow=none;endArrow=open;endSize=12;exitX=-0.0033573178078630844;exitY=0.9887150125332854;entryX=0.36005464012240157;entryY=0;rounded=0;labelBackgroundColor=none;strokeColor=#23445D;fontColor=default;" edge="1" parent="1" source="h0L3zIeI5D8LHyn1ZvPP-271" target="h0L3zIeI5D8LHyn1ZvPP-259">
          <mxGeometry relative="1" as="geometry">
            <Array as="points">
              <mxPoint x="1696" y="2521" />
              <mxPoint x="1696" y="2629" />
            </Array>
          </mxGeometry>
        </mxCell>
        <mxCell id="h0L3zIeI5D8LHyn1ZvPP-283" value="" style="curved=1;startArrow=none;endArrow=open;endSize=12;exitX=0.8658234571857892;exitY=1;entryX=0.5028296015155849;entryY=0;rounded=0;labelBackgroundColor=none;strokeColor=#23445D;fontColor=default;" edge="1" parent="1" source="h0L3zIeI5D8LHyn1ZvPP-271" target="h0L3zIeI5D8LHyn1ZvPP-273">
          <mxGeometry relative="1" as="geometry">
            <Array as="points">
              <mxPoint x="1924" y="2521" />
            </Array>
          </mxGeometry>
        </mxCell>
        <mxCell id="h0L3zIeI5D8LHyn1ZvPP-284" value="" style="curved=1;startArrow=none;endArrow=open;endSize=12;exitX=0.0021455181178761953;exitY=0.8858026015345418;entryX=0.9975427725376227;entryY=0.17627624990202823;rounded=0;labelBackgroundColor=none;strokeColor=#23445D;fontColor=default;" edge="1" parent="1" source="h0L3zIeI5D8LHyn1ZvPP-273" target="h0L3zIeI5D8LHyn1ZvPP-259">
          <mxGeometry relative="1" as="geometry">
            <Array as="points">
              <mxPoint x="1762" y="2629" />
            </Array>
          </mxGeometry>
        </mxCell>
        <mxCell id="h0L3zIeI5D8LHyn1ZvPP-285" value="" style="curved=1;startArrow=none;endArrow=open;endSize=12;exitX=0.15876520740979264;exitY=1;entryX=0.5002333450317383;entryY=0;rounded=0;labelBackgroundColor=none;strokeColor=#23445D;fontColor=default;" edge="1" parent="1" source="h0L3zIeI5D8LHyn1ZvPP-273" target="h0L3zIeI5D8LHyn1ZvPP-269">
          <mxGeometry relative="1" as="geometry">
            <Array as="points">
              <mxPoint x="1839" y="2629" />
            </Array>
          </mxGeometry>
        </mxCell>
        <mxCell id="h0L3zIeI5D8LHyn1ZvPP-286" value="" style="curved=1;startArrow=none;endArrow=open;endSize=12;exitX=0.927048777268696;exitY=1;entryX=0.5014504118810726;entryY=0;rounded=0;labelBackgroundColor=none;strokeColor=#23445D;fontColor=default;" edge="1" parent="1" source="h0L3zIeI5D8LHyn1ZvPP-273" target="h0L3zIeI5D8LHyn1ZvPP-275">
          <mxGeometry relative="1" as="geometry">
            <Array as="points">
              <mxPoint x="2030" y="2629" />
            </Array>
          </mxGeometry>
        </mxCell>
        <mxCell id="h0L3zIeI5D8LHyn1ZvPP-292" value="data_source" style="text;html=1;strokeColor=none;fillColor=none;align=center;verticalAlign=middle;whiteSpace=wrap;rounded=0;fontColor=#FFFFFF;fontSize=18;fontStyle=1;labelBackgroundColor=none;" vertex="1" parent="1">
          <mxGeometry x="1114" y="3111" width="135" height="30" as="geometry" />
        </mxCell>
        <mxCell id="h0L3zIeI5D8LHyn1ZvPP-293" value="myrequests" style="text;html=1;strokeColor=none;fillColor=none;align=center;verticalAlign=middle;whiteSpace=wrap;rounded=0;fontColor=#FFFFFF;fontStyle=1;fontSize=20;labelBackgroundColor=none;" vertex="1" parent="1">
          <mxGeometry x="1813" y="2381" width="85" height="30" as="geometry" />
        </mxCell>
        <mxCell id="h0L3zIeI5D8LHyn1ZvPP-294" value="utilities" style="swimlane;fontStyle=1;align=center;verticalAlign=top;childLayout=stackLayout;horizontal=1;startSize=25;horizontalStack=0;resizeParent=1;resizeParentMax=0;resizeLast=0;collapsible=0;marginBottom=0;labelBackgroundColor=none;fillColor=#182E3E;strokeColor=#FFFFFF;fontColor=#FFFFFF;" vertex="1" parent="1">
          <mxGeometry x="189" y="3247" width="71" height="38" as="geometry" />
        </mxCell>
        <mxCell id="h0L3zIeI5D8LHyn1ZvPP-295" style="line;strokeWidth=1;fillColor=none;align=left;verticalAlign=middle;spacingTop=-1;spacingLeft=3;spacingRight=3;rotatable=0;labelPosition=right;points=[];portConstraint=eastwest;strokeColor=#FFFFFF;labelBackgroundColor=none;fontColor=#FFFFFF;" vertex="1" parent="h0L3zIeI5D8LHyn1ZvPP-294">
          <mxGeometry y="25" width="71" height="13" as="geometry" />
        </mxCell>
        <mxCell id="h0L3zIeI5D8LHyn1ZvPP-296" value="config" style="swimlane;fontStyle=1;align=center;verticalAlign=top;childLayout=stackLayout;horizontal=1;startSize=25;horizontalStack=0;resizeParent=1;resizeParentMax=0;resizeLast=0;collapsible=0;marginBottom=0;labelBackgroundColor=none;fillColor=#182E3E;strokeColor=#FFFFFF;fontColor=#FFFFFF;" vertex="1" parent="1">
          <mxGeometry x="443" y="3247" width="63" height="38" as="geometry" />
        </mxCell>
        <mxCell id="h0L3zIeI5D8LHyn1ZvPP-297" style="line;strokeWidth=1;fillColor=none;align=left;verticalAlign=middle;spacingTop=-1;spacingLeft=3;spacingRight=3;rotatable=0;labelPosition=right;points=[];portConstraint=eastwest;strokeColor=#FFFFFF;labelBackgroundColor=none;fontColor=#FFFFFF;" vertex="1" parent="h0L3zIeI5D8LHyn1ZvPP-296">
          <mxGeometry y="25" width="63" height="13" as="geometry" />
        </mxCell>
        <mxCell id="h0L3zIeI5D8LHyn1ZvPP-298" value="exception" style="swimlane;fontStyle=1;align=center;verticalAlign=top;childLayout=stackLayout;horizontal=1;startSize=25;horizontalStack=0;resizeParent=1;resizeParentMax=0;resizeLast=0;collapsible=0;marginBottom=0;labelBackgroundColor=none;fillColor=#182E3E;strokeColor=#FFFFFF;fontColor=#FFFFFF;" vertex="1" parent="1">
          <mxGeometry x="260" y="3355" width="90" height="38" as="geometry" />
        </mxCell>
        <mxCell id="h0L3zIeI5D8LHyn1ZvPP-299" style="line;strokeWidth=1;fillColor=none;align=left;verticalAlign=middle;spacingTop=-1;spacingLeft=3;spacingRight=3;rotatable=0;labelPosition=right;points=[];portConstraint=eastwest;strokeColor=#FFFFFF;labelBackgroundColor=none;fontColor=#FFFFFF;" vertex="1" parent="h0L3zIeI5D8LHyn1ZvPP-298">
          <mxGeometry y="25" width="90" height="13" as="geometry" />
        </mxCell>
        <mxCell id="h0L3zIeI5D8LHyn1ZvPP-300" value="logger" style="swimlane;fontStyle=1;align=center;verticalAlign=top;childLayout=stackLayout;horizontal=1;startSize=25;horizontalStack=0;resizeParent=1;resizeParentMax=0;resizeLast=0;collapsible=0;marginBottom=0;labelBackgroundColor=none;fillColor=#182E3E;strokeColor=#FFFFFF;fontColor=#FFFFFF;" vertex="1" parent="1">
          <mxGeometry x="263" y="3139" width="64" height="38" as="geometry" />
        </mxCell>
        <mxCell id="h0L3zIeI5D8LHyn1ZvPP-301" style="line;strokeWidth=1;fillColor=none;align=left;verticalAlign=middle;spacingTop=-1;spacingLeft=3;spacingRight=3;rotatable=0;labelPosition=right;points=[];portConstraint=eastwest;strokeColor=#FFFFFF;labelBackgroundColor=none;fontColor=#FFFFFF;" vertex="1" parent="h0L3zIeI5D8LHyn1ZvPP-300">
          <mxGeometry y="25" width="64" height="13" as="geometry" />
        </mxCell>
        <mxCell id="h0L3zIeI5D8LHyn1ZvPP-302" value="singleton_decorator" style="swimlane;fontStyle=1;align=center;verticalAlign=top;childLayout=stackLayout;horizontal=1;startSize=25;horizontalStack=0;resizeParent=1;resizeParentMax=0;resizeLast=0;collapsible=0;marginBottom=0;labelBackgroundColor=none;fillColor=#182E3E;strokeColor=#FFFFFF;fontColor=#FFFFFF;" vertex="1" parent="1">
          <mxGeometry x="400" y="3355" width="169" height="38" as="geometry" />
        </mxCell>
        <mxCell id="h0L3zIeI5D8LHyn1ZvPP-303" style="line;strokeWidth=1;fillColor=none;align=left;verticalAlign=middle;spacingTop=-1;spacingLeft=3;spacingRight=3;rotatable=0;labelPosition=right;points=[];portConstraint=eastwest;strokeColor=#FFFFFF;labelBackgroundColor=none;fontColor=#FFFFFF;" vertex="1" parent="h0L3zIeI5D8LHyn1ZvPP-302">
          <mxGeometry y="25" width="169" height="13" as="geometry" />
        </mxCell>
        <mxCell id="h0L3zIeI5D8LHyn1ZvPP-304" value="" style="curved=1;startArrow=none;endArrow=open;endSize=12;exitX=-0.0034391312372116815;exitY=0.827154147995302;entryX=0.9754741087862493;entryY=0;rounded=0;labelBackgroundColor=none;strokeColor=#23445D;fontColor=default;" edge="1" parent="1" source="h0L3zIeI5D8LHyn1ZvPP-296" target="h0L3zIeI5D8LHyn1ZvPP-298">
          <mxGeometry relative="1" as="geometry">
            <Array as="points">
              <mxPoint x="385" y="3330" />
            </Array>
          </mxGeometry>
        </mxCell>
        <mxCell id="h0L3zIeI5D8LHyn1ZvPP-305" value="" style="curved=1;startArrow=none;endArrow=open;endSize=12;exitX=0.5816725697817348;exitY=1;entryX=0.4986686480821237;entryY=0;rounded=0;labelBackgroundColor=none;strokeColor=#23445D;fontColor=default;" edge="1" parent="1" source="h0L3zIeI5D8LHyn1ZvPP-296" target="h0L3zIeI5D8LHyn1ZvPP-302">
          <mxGeometry relative="1" as="geometry">
            <Array as="points">
              <mxPoint x="484" y="3330" />
            </Array>
          </mxGeometry>
        </mxCell>
        <mxCell id="h0L3zIeI5D8LHyn1ZvPP-306" value="" style="curved=1;startArrow=none;endArrow=open;endSize=12;exitX=0.9996093809604645;exitY=0.6659145116626776;entryX=0.49642859564887154;entryY=0;rounded=0;labelBackgroundColor=none;strokeColor=#23445D;fontColor=default;" edge="1" parent="1" source="h0L3zIeI5D8LHyn1ZvPP-300" target="h0L3zIeI5D8LHyn1ZvPP-296">
          <mxGeometry relative="1" as="geometry">
            <Array as="points">
              <mxPoint x="474" y="3222" />
            </Array>
          </mxGeometry>
        </mxCell>
        <mxCell id="h0L3zIeI5D8LHyn1ZvPP-307" value="" style="curved=1;startArrow=none;endArrow=open;endSize=12;exitX=0.5005208253860474;exitY=1;entryX=0.44069958282596294;entryY=0;rounded=0;labelBackgroundColor=none;strokeColor=#23445D;fontColor=default;" edge="1" parent="1" source="h0L3zIeI5D8LHyn1ZvPP-300" target="h0L3zIeI5D8LHyn1ZvPP-298">
          <mxGeometry relative="1" as="geometry">
            <Array as="points">
              <mxPoint x="295" y="3330" />
            </Array>
          </mxGeometry>
        </mxCell>
        <mxCell id="h0L3zIeI5D8LHyn1ZvPP-308" value="" style="curved=1;startArrow=none;endArrow=open;endSize=12;exitX=0.001432269811630249;exitY=0.9217271667134361;entryX=0.5002347382021622;entryY=0;rounded=0;labelBackgroundColor=none;strokeColor=#23445D;fontColor=default;" edge="1" parent="1" source="h0L3zIeI5D8LHyn1ZvPP-300" target="h0L3zIeI5D8LHyn1ZvPP-294">
          <mxGeometry relative="1" as="geometry">
            <Array as="points">
              <mxPoint x="225" y="3222" />
            </Array>
          </mxGeometry>
        </mxCell>
        <mxCell id="h0L3zIeI5D8LHyn1ZvPP-309" value="utilities" style="text;html=1;strokeColor=none;fillColor=none;align=center;verticalAlign=middle;whiteSpace=wrap;rounded=0;fontColor=#FFFFFF;fontSize=18;fontStyle=1;labelBackgroundColor=none;" vertex="1" parent="1">
          <mxGeometry x="332" y="3070" width="60" height="30" as="geometry" />
        </mxCell>
      </root>
    </mxGraphModel>
  </diagram>
</mxfile>
